 999
VISION3D DXF
0
SECTION
2
HEADER
0
ENDSEC
0
SECTION
2
TABLES
0
ENDSEC
0
SECTION
2
BLOCKS
 0
BLOCK
 70
0
 2
TOP_SILKSCREEN_Polygon_31
 10
0
 20
0
 30
0
0
3DFACE
8
2
 62
2
 10
0.122500005818438
 20
0.0468701022262103
 30
0
 11
0.122500005818438
 21
0.0318701015137485
 31
0
 12
0.112500005343463
 22
0.0318701015137485
 32
0
 13
0.112500005343463
 23
0.0468701022262103
 33
0
0
3DFACE
8
2
 62
2
 10
0.122500005818438
 20
0.0468701022262103
 30
0.0430000020423904
 11
0.122500005818438
 21
0.0318701015137485
 31
0.0430000020423904
 12
0.112500005343463
 22
0.0318701015137485
 32
0.0430000020423904
 13
0.112500005343463
 23
0.0468701022262103
 33
0.0430000020423904
0
3DFACE
8
2
 62
2
 10
0.112500005343463
 20
0.0468701022262103
 30
0
 11
0.122500005818438
 21
0.0468701022262103
 31
0
 12
0.122500005818438
 22
0.0468701022262103
 32
0.0430000020423904
 13
0.112500005343463
 23
0.0468701022262103
 33
0.0430000020423904
0
3DFACE
8
2
 62
2
 10
0.122500005818438
 20
0.0468701022262103
 30
0
 11
0.122500005818438
 21
0.0318701015137485
 31
0
 12
0.122500005818438
 22
0.0318701015137485
 32
0.0430000020423904
 13
0.122500005818438
 23
0.0468701022262103
 33
0.0430000020423904
0
3DFACE
8
2
 62
2
 10
0.122500005818438
 20
0.0318701015137485
 30
0
 11
0.112500005343463
 21
0.0318701015137485
 31
0
 12
0.112500005343463
 22
0.0318701015137485
 32
0.0430000020423904
 13
0.122500005818438
 23
0.0318701015137485
 33
0.0430000020423904
0
3DFACE
8
2
 62
2
 10
0.112500005343463
 20
0.0318701015137485
 30
0
 11
0.112500005343463
 21
0.0468701022262103
 31
0
 12
0.112500005343463
 22
0.0468701022262103
 32
0.0430000020423904
 13
0.112500005343463
 23
0.0318701015137485
 33
0.0430000020423904
 0
ENDBLK
 0
BLOCK
 70
0
 2
TOP_PLACE_BOUND_Polygon_84
 10
0
 20
0
 30
0
0
3DFACE
8
8
 62
8
 10
-0.106500005058479
 20
-0.0488700813617315
 30
0
 11
-0.106500005058479
 21
0.0488700813617315
 31
0
 12
-0.0630000029923394
 22
0.0488700813617315
 32
0
 13
-0.0630000029923394
 23
0.0488700813617315
 33
0
0
3DFACE
8
8
 62
8
 10
-0.106500005058479
 20
-0.0488700813617315
 30
0
 11
-0.0630000029923394
 21
0.0488700813617315
 31
0
 12
0.0630000029923394
 22
0.0630000029923394
 32
0
 13
0.0630000029923394
 23
0.0630000029923394
 33
0
0
3DFACE
8
8
 62
8
 10
-0.0630000029923394
 20
0.0488700813617315
 30
0
 11
-0.0630000029923394
 21
0.0630000029923394
 31
0
 12
0.0630000029923394
 22
0.0630000029923394
 32
0
 13
0.0630000029923394
 23
0.0630000029923394
 33
0
0
3DFACE
8
8
 62
8
 10
-0.106500005058479
 20
-0.0488700813617315
 30
0
 11
0.0630000029923394
 21
0.0630000029923394
 31
0
 12
0.0630000029923394
 22
0.0488700813617315
 32
0
 13
0.0630000029923394
 23
0.0488700813617315
 33
0
0
3DFACE
8
8
 62
8
 10
-0.106500005058479
 20
-0.0488700813617315
 30
0
 11
0.0630000029923394
 21
0.0488700813617315
 31
0
 12
0.106500005058479
 22
0.0488700813617315
 32
0
 13
0.106500005058479
 23
0.0488700813617315
 33
0
0
3DFACE
8
8
 62
8
 10
-0.106500005058479
 20
-0.0488700813617315
 30
0
 11
0.106500005058479
 21
0.0488700813617315
 31
0
 12
-0.0630000029923394
 22
-0.0488700813617315
 32
0
 13
-0.0630000029923394
 23
-0.0488700813617315
 33
0
0
3DFACE
8
8
 62
8
 10
0.106500005058479
 20
0.0488700813617315
 30
0
 11
0.106500005058479
 21
-0.0488700813617315
 31
0
 12
0.0630000029923394
 22
-0.0488700813617315
 32
0
 13
0.0630000029923394
 23
-0.0488700813617315
 33
0
0
3DFACE
8
8
 62
8
 10
0.106500005058479
 20
0.0488700813617315
 30
0
 11
0.0630000029923394
 21
-0.0488700813617315
 31
0
 12
-0.0630000029923394
 22
-0.0630000029923394
 32
0
 13
-0.0630000029923394
 23
-0.0630000029923394
 33
0
0
3DFACE
8
8
 62
8
 10
0.0630000029923394
 20
-0.0488700813617315
 30
0
 11
0.0630000029923394
 21
-0.0630000029923394
 31
0
 12
-0.0630000029923394
 22
-0.0630000029923394
 32
0
 13
-0.0630000029923394
 23
-0.0630000029923394
 33
0
0
3DFACE
8
8
 62
8
 10
0.106500005058479
 20
0.0488700813617315
 30
0
 11
-0.0630000029923394
 21
-0.0630000029923394
 31
0
 12
-0.0630000029923394
 22
-0.0488700813617315
 32
0
 13
-0.0630000029923394
 23
-0.0488700813617315
 33
0
0
3DFACE
8
8
 62
8
 10
-0.106500005058479
 20
-0.0488700813617315
 30
0.0430000020423904
 11
-0.106500005058479
 21
0.0488700813617315
 31
0.0430000020423904
 12
-0.0630000029923394
 22
0.0488700813617315
 32
0.0430000020423904
 13
-0.0630000029923394
 23
0.0488700813617315
 33
0.0430000020423904
0
3DFACE
8
8
 62
8
 10
-0.106500005058479
 20
-0.0488700813617315
 30
0.0430000020423904
 11
-0.0630000029923394
 21
0.0488700813617315
 31
0.0430000020423904
 12
0.0630000029923394
 22
0.0630000029923394
 32
0.0430000020423904
 13
0.0630000029923394
 23
0.0630000029923394
 33
0.0430000020423904
0
3DFACE
8
8
 62
8
 10
-0.0630000029923394
 20
0.0488700813617315
 30
0.0430000020423904
 11
-0.0630000029923394
 21
0.0630000029923394
 31
0.0430000020423904
 12
0.0630000029923394
 22
0.0630000029923394
 32
0.0430000020423904
 13
0.0630000029923394
 23
0.0630000029923394
 33
0.0430000020423904
0
3DFACE
8
8
 62
8
 10
-0.106500005058479
 20
-0.0488700813617315
 30
0.0430000020423904
 11
0.0630000029923394
 21
0.0630000029923394
 31
0.0430000020423904
 12
0.0630000029923394
 22
0.0488700813617315
 32
0.0430000020423904
 13
0.0630000029923394
 23
0.0488700813617315
 33
0.0430000020423904
0
3DFACE
8
8
 62
8
 10
-0.106500005058479
 20
-0.0488700813617315
 30
0.0430000020423904
 11
0.0630000029923394
 21
0.0488700813617315
 31
0.0430000020423904
 12
0.106500005058479
 22
0.0488700813617315
 32
0.0430000020423904
 13
0.106500005058479
 23
0.0488700813617315
 33
0.0430000020423904
0
3DFACE
8
8
 62
8
 10
-0.106500005058479
 20
-0.0488700813617315
 30
0.0430000020423904
 11
0.106500005058479
 21
0.0488700813617315
 31
0.0430000020423904
 12
-0.0630000029923394
 22
-0.0488700813617315
 32
0.0430000020423904
 13
-0.0630000029923394
 23
-0.0488700813617315
 33
0.0430000020423904
0
3DFACE
8
8
 62
8
 10
0.106500005058479
 20
0.0488700813617315
 30
0.0430000020423904
 11
0.106500005058479
 21
-0.0488700813617315
 31
0.0430000020423904
 12
0.0630000029923394
 22
-0.0488700813617315
 32
0.0430000020423904
 13
0.0630000029923394
 23
-0.0488700813617315
 33
0.0430000020423904
0
3DFACE
8
8
 62
8
 10
0.106500005058479
 20
0.0488700813617315
 30
0.0430000020423904
 11
0.0630000029923394
 21
-0.0488700813617315
 31
0.0430000020423904
 12
-0.0630000029923394
 22
-0.0630000029923394
 32
0.0430000020423904
 13
-0.0630000029923394
 23
-0.0630000029923394
 33
0.0430000020423904
0
3DFACE
8
8
 62
8
 10
0.0630000029923394
 20
-0.0488700813617315
 30
0.0430000020423904
 11
0.0630000029923394
 21
-0.0630000029923394
 31
0.0430000020423904
 12
-0.0630000029923394
 22
-0.0630000029923394
 32
0.0430000020423904
 13
-0.0630000029923394
 23
-0.0630000029923394
 33
0.0430000020423904
0
3DFACE
8
8
 62
8
 10
0.106500005058479
 20
0.0488700813617315
 30
0.0430000020423904
 11
-0.0630000029923394
 21
-0.0630000029923394
 31
0.0430000020423904
 12
-0.0630000029923394
 22
-0.0488700813617315
 32
0.0430000020423904
 13
-0.0630000029923394
 23
-0.0488700813617315
 33
0.0430000020423904
0
3DFACE
8
8
 62
8
 10
-0.0630000029923394
 20
-0.0488700813617315
 30
0
 11
-0.106500005058479
 21
-0.0488700813617315
 31
0
 12
-0.106500005058479
 22
-0.0488700813617315
 32
0.0430000020423904
 13
-0.0630000029923394
 23
-0.0488700813617315
 33
0.0430000020423904
0
3DFACE
8
8
 62
8
 10
-0.106500005058479
 20
-0.0488700813617315
 30
0
 11
-0.106500005058479
 21
0.0488700813617315
 31
0
 12
-0.106500005058479
 22
0.0488700813617315
 32
0.0430000020423904
 13
-0.106500005058479
 23
-0.0488700813617315
 33
0.0430000020423904
0
3DFACE
8
8
 62
8
 10
-0.106500005058479
 20
0.0488700813617315
 30
0
 11
-0.0630000029923394
 21
0.0488700813617315
 31
0
 12
-0.0630000029923394
 22
0.0488700813617315
 32
0.0430000020423904
 13
-0.106500005058479
 23
0.0488700813617315
 33
0.0430000020423904
0
3DFACE
8
8
 62
8
 10
-0.0630000029923394
 20
0.0488700813617315
 30
0
 11
-0.0630000029923394
 21
0.0630000029923394
 31
0
 12
-0.0630000029923394
 22
0.0630000029923394
 32
0.0430000020423904
 13
-0.0630000029923394
 23
0.0488700813617315
 33
0.0430000020423904
0
3DFACE
8
8
 62
8
 10
-0.0630000029923394
 20
0.0630000029923394
 30
0
 11
0.0630000029923394
 21
0.0630000029923394
 31
0
 12
0.0630000029923394
 22
0.0630000029923394
 32
0.0430000020423904
 13
-0.0630000029923394
 23
0.0630000029923394
 33
0.0430000020423904
0
3DFACE
8
8
 62
8
 10
0.0630000029923394
 20
0.0630000029923394
 30
0
 11
0.0630000029923394
 21
0.0488700813617315
 31
0
 12
0.0630000029923394
 22
0.0488700813617315
 32
0.0430000020423904
 13
0.0630000029923394
 23
0.0630000029923394
 33
0.0430000020423904
0
3DFACE
8
8
 62
8
 10
0.0630000029923394
 20
0.0488700813617315
 30
0
 11
0.106500005058479
 21
0.0488700813617315
 31
0
 12
0.106500005058479
 22
0.0488700813617315
 32
0.0430000020423904
 13
0.0630000029923394
 23
0.0488700813617315
 33
0.0430000020423904
0
3DFACE
8
8
 62
8
 10
0.106500005058479
 20
0.0488700813617315
 30
0
 11
0.106500005058479
 21
-0.0488700813617315
 31
0
 12
0.106500005058479
 22
-0.0488700813617315
 32
0.0430000020423904
 13
0.106500005058479
 23
0.0488700813617315
 33
0.0430000020423904
0
3DFACE
8
8
 62
8
 10
0.106500005058479
 20
-0.0488700813617315
 30
0
 11
0.0630000029923394
 21
-0.0488700813617315
 31
0
 12
0.0630000029923394
 22
-0.0488700813617315
 32
0.0430000020423904
 13
0.106500005058479
 23
-0.0488700813617315
 33
0.0430000020423904
0
3DFACE
8
8
 62
8
 10
0.0630000029923394
 20
-0.0488700813617315
 30
0
 11
0.0630000029923394
 21
-0.0630000029923394
 31
0
 12
0.0630000029923394
 22
-0.0630000029923394
 32
0.0430000020423904
 13
0.0630000029923394
 23
-0.0488700813617315
 33
0.0430000020423904
0
3DFACE
8
8
 62
8
 10
0.0630000029923394
 20
-0.0630000029923394
 30
0
 11
-0.0630000029923394
 21
-0.0630000029923394
 31
0
 12
-0.0630000029923394
 22
-0.0630000029923394
 32
0.0430000020423904
 13
0.0630000029923394
 23
-0.0630000029923394
 33
0.0430000020423904
0
3DFACE
8
8
 62
8
 10
-0.0630000029923394
 20
-0.0630000029923394
 30
0
 11
-0.0630000029923394
 21
-0.0488700813617315
 31
0
 12
-0.0630000029923394
 22
-0.0488700813617315
 32
0.0430000020423904
 13
-0.0630000029923394
 23
-0.0630000029923394
 33
0.0430000020423904
 0
ENDBLK
 0
BLOCK
 70
0
 2
TOP_VALOR_Polygon_102
 10
0
 20
0
 30
0
0
3DFACE
8
23
 62
23
 10
-0.127500006055925
 20
-0.0690000032773241
 30
0
 11
-0.127500006055925
 21
0.0690000032773241
 31
0
 12
0.127500006055925
 22
0.0690000032773241
 32
0
 13
0.127500006055925
 23
-0.0690000032773241
 33
0
0
3DFACE
8
23
 62
23
 10
-0.127500006055925
 20
-0.0690000032773241
 30
0.0430000020423904
 11
-0.127500006055925
 21
0.0690000032773241
 31
0.0430000020423904
 12
0.127500006055925
 22
0.0690000032773241
 32
0.0430000020423904
 13
0.127500006055925
 23
-0.0690000032773241
 33
0.0430000020423904
0
3DFACE
8
23
 62
23
 10
0.127500006055925
 20
-0.0690000032773241
 30
0
 11
-0.127500006055925
 21
-0.0690000032773241
 31
0
 12
-0.127500006055925
 22
-0.0690000032773241
 32
0.0430000020423904
 13
0.127500006055925
 23
-0.0690000032773241
 33
0.0430000020423904
0
3DFACE
8
23
 62
23
 10
-0.127500006055925
 20
-0.0690000032773241
 30
0
 11
-0.127500006055925
 21
0.0690000032773241
 31
0
 12
-0.127500006055925
 22
0.0690000032773241
 32
0.0430000020423904
 13
-0.127500006055925
 23
-0.0690000032773241
 33
0.0430000020423904
0
3DFACE
8
23
 62
23
 10
-0.127500006055925
 20
0.0690000032773241
 30
0
 11
0.127500006055925
 21
0.0690000032773241
 31
0
 12
0.127500006055925
 22
0.0690000032773241
 32
0.0430000020423904
 13
-0.127500006055925
 23
0.0690000032773241
 33
0.0430000020423904
0
3DFACE
8
23
 62
23
 10
0.127500006055925
 20
0.0690000032773241
 30
0
 11
0.127500006055925
 21
-0.0690000032773241
 31
0
 12
0.127500006055925
 22
-0.0690000032773241
 32
0.0430000020423904
 13
0.127500006055925
 23
0.0690000032773241
 33
0.0430000020423904
 0
ENDBLK
0
ENDSEC
0
SECTION
2
ENTITIES
 0
INSERT
 8
2
 2
TOP_SILKSCREEN_Polygon_31
 10
0
 20
0
 30
0
 41
1
 42
1
 43
1
 0
INSERT
 8
8
 2
TOP_PLACE_BOUND_Polygon_84
 10
0
 20
0
 30
0
 41
1
 42
1
 43
1
 0
INSERT
 8
23
 2
TOP_VALOR_Polygon_102
 10
0
 20
0
 30
0
 41
1
 42
1
 43
1
0
ENDSEC
 0
EOF

