 999
VISION3D DXF
0
SECTION
2
HEADER
0
ENDSEC
0
SECTION
2
TABLES
0
ENDSEC
0
SECTION
2
BLOCKS
 0
BLOCK
 70
0
 2
TOP_SILKSCREEN_Polygon_31
 10
0
 20
0
 30
0
0
3DFACE
8
2
 62
2
 10
0.138500006578397
 20
0.0468701022262103
 30
0
 11
0.138500006578397
 21
0.0318701015137485
 31
0
 12
0.128500006103422
 22
0.0318701015137485
 32
0
 13
0.128500006103422
 23
0.0468701022262103
 33
0
0
3DFACE
8
2
 62
2
 10
0.138500006578397
 20
0.0468701022262103
 30
0.0430000020423904
 11
0.138500006578397
 21
0.0318701015137485
 31
0.0430000020423904
 12
0.128500006103422
 22
0.0318701015137485
 32
0.0430000020423904
 13
0.128500006103422
 23
0.0468701022262103
 33
0.0430000020423904
0
3DFACE
8
2
 62
2
 10
0.128500006103422
 20
0.0468701022262103
 30
0
 11
0.138500006578397
 21
0.0468701022262103
 31
0
 12
0.138500006578397
 22
0.0468701022262103
 32
0.0430000020423904
 13
0.128500006103422
 23
0.0468701022262103
 33
0.0430000020423904
0
3DFACE
8
2
 62
2
 10
0.138500006578397
 20
0.0468701022262103
 30
0
 11
0.138500006578397
 21
0.0318701015137485
 31
0
 12
0.138500006578397
 22
0.0318701015137485
 32
0.0430000020423904
 13
0.138500006578397
 23
0.0468701022262103
 33
0.0430000020423904
0
3DFACE
8
2
 62
2
 10
0.138500006578397
 20
0.0318701015137485
 30
0
 11
0.128500006103422
 21
0.0318701015137485
 31
0
 12
0.128500006103422
 22
0.0318701015137485
 32
0.0430000020423904
 13
0.138500006578397
 23
0.0318701015137485
 33
0.0430000020423904
0
3DFACE
8
2
 62
2
 10
0.128500006103422
 20
0.0318701015137485
 30
0
 11
0.128500006103422
 21
0.0468701022262103
 31
0
 12
0.128500006103422
 22
0.0468701022262103
 32
0.0430000020423904
 13
0.128500006103422
 23
0.0318701015137485
 33
0.0430000020423904
 0
ENDBLK
 0
BLOCK
 70
0
 2
TOP_PLACE_BOUND_Polygon_84
 10
0
 20
0
 30
0
0
3DFACE
8
8
 62
8
 10
-0.138500006578397
 20
-0.0658700821691882
 30
0
 11
-0.138500006578397
 21
0.0658700821691882
 31
0
 12
-0.0790000037522987
 22
0.0658700821691882
 32
0
 13
-0.0790000037522987
 23
0.0658700821691882
 33
0
0
3DFACE
8
8
 62
8
 10
-0.138500006578397
 20
-0.0658700821691882
 30
0
 11
-0.0790000037522987
 21
0.0658700821691882
 31
0
 12
0.0790000037522987
 22
0.0790000037522987
 32
0
 13
0.0790000037522987
 23
0.0790000037522987
 33
0
0
3DFACE
8
8
 62
8
 10
-0.0790000037522987
 20
0.0658700821691882
 30
0
 11
-0.0790000037522987
 21
0.0790000037522987
 31
0
 12
0.0790000037522987
 22
0.0790000037522987
 32
0
 13
0.0790000037522987
 23
0.0790000037522987
 33
0
0
3DFACE
8
8
 62
8
 10
-0.138500006578397
 20
-0.0658700821691882
 30
0
 11
0.0790000037522987
 21
0.0790000037522987
 31
0
 12
0.0790000037522987
 22
0.0658700821691882
 32
0
 13
0.0790000037522987
 23
0.0658700821691882
 33
0
0
3DFACE
8
8
 62
8
 10
-0.138500006578397
 20
-0.0658700821691882
 30
0
 11
0.0790000037522987
 21
0.0658700821691882
 31
0
 12
0.138500006578397
 22
0.0658700821691882
 32
0
 13
0.138500006578397
 23
0.0658700821691882
 33
0
0
3DFACE
8
8
 62
8
 10
-0.138500006578397
 20
-0.0658700821691882
 30
0
 11
0.138500006578397
 21
0.0658700821691882
 31
0
 12
-0.0790000037522987
 22
-0.0658700821691882
 32
0
 13
-0.0790000037522987
 23
-0.0658700821691882
 33
0
0
3DFACE
8
8
 62
8
 10
0.138500006578397
 20
0.0658700821691882
 30
0
 11
0.138500006578397
 21
-0.0658700821691882
 31
0
 12
0.0790000037522987
 22
-0.0658700821691882
 32
0
 13
0.0790000037522987
 23
-0.0658700821691882
 33
0
0
3DFACE
8
8
 62
8
 10
0.138500006578397
 20
0.0658700821691882
 30
0
 11
0.0790000037522987
 21
-0.0658700821691882
 31
0
 12
-0.0790000037522987
 22
-0.0790000037522987
 32
0
 13
-0.0790000037522987
 23
-0.0790000037522987
 33
0
0
3DFACE
8
8
 62
8
 10
0.0790000037522987
 20
-0.0658700821691882
 30
0
 11
0.0790000037522987
 21
-0.0790000037522987
 31
0
 12
-0.0790000037522987
 22
-0.0790000037522987
 32
0
 13
-0.0790000037522987
 23
-0.0790000037522987
 33
0
0
3DFACE
8
8
 62
8
 10
0.138500006578397
 20
0.0658700821691882
 30
0
 11
-0.0790000037522987
 21
-0.0790000037522987
 31
0
 12
-0.0790000037522987
 22
-0.0658700821691882
 32
0
 13
-0.0790000037522987
 23
-0.0658700821691882
 33
0
0
3DFACE
8
8
 62
8
 10
-0.138500006578397
 20
-0.0658700821691882
 30
0.0430000020423904
 11
-0.138500006578397
 21
0.0658700821691882
 31
0.0430000020423904
 12
-0.0790000037522987
 22
0.0658700821691882
 32
0.0430000020423904
 13
-0.0790000037522987
 23
0.0658700821691882
 33
0.0430000020423904
0
3DFACE
8
8
 62
8
 10
-0.138500006578397
 20
-0.0658700821691882
 30
0.0430000020423904
 11
-0.0790000037522987
 21
0.0658700821691882
 31
0.0430000020423904
 12
0.0790000037522987
 22
0.0790000037522987
 32
0.0430000020423904
 13
0.0790000037522987
 23
0.0790000037522987
 33
0.0430000020423904
0
3DFACE
8
8
 62
8
 10
-0.0790000037522987
 20
0.0658700821691882
 30
0.0430000020423904
 11
-0.0790000037522987
 21
0.0790000037522987
 31
0.0430000020423904
 12
0.0790000037522987
 22
0.0790000037522987
 32
0.0430000020423904
 13
0.0790000037522987
 23
0.0790000037522987
 33
0.0430000020423904
0
3DFACE
8
8
 62
8
 10
-0.138500006578397
 20
-0.0658700821691882
 30
0.0430000020423904
 11
0.0790000037522987
 21
0.0790000037522987
 31
0.0430000020423904
 12
0.0790000037522987
 22
0.0658700821691882
 32
0.0430000020423904
 13
0.0790000037522987
 23
0.0658700821691882
 33
0.0430000020423904
0
3DFACE
8
8
 62
8
 10
-0.138500006578397
 20
-0.0658700821691882
 30
0.0430000020423904
 11
0.0790000037522987
 21
0.0658700821691882
 31
0.0430000020423904
 12
0.138500006578397
 22
0.0658700821691882
 32
0.0430000020423904
 13
0.138500006578397
 23
0.0658700821691882
 33
0.0430000020423904
0
3DFACE
8
8
 62
8
 10
-0.138500006578397
 20
-0.0658700821691882
 30
0.0430000020423904
 11
0.138500006578397
 21
0.0658700821691882
 31
0.0430000020423904
 12
-0.0790000037522987
 22
-0.0658700821691882
 32
0.0430000020423904
 13
-0.0790000037522987
 23
-0.0658700821691882
 33
0.0430000020423904
0
3DFACE
8
8
 62
8
 10
0.138500006578397
 20
0.0658700821691882
 30
0.0430000020423904
 11
0.138500006578397
 21
-0.0658700821691882
 31
0.0430000020423904
 12
0.0790000037522987
 22
-0.0658700821691882
 32
0.0430000020423904
 13
0.0790000037522987
 23
-0.0658700821691882
 33
0.0430000020423904
0
3DFACE
8
8
 62
8
 10
0.138500006578397
 20
0.0658700821691882
 30
0.0430000020423904
 11
0.0790000037522987
 21
-0.0658700821691882
 31
0.0430000020423904
 12
-0.0790000037522987
 22
-0.0790000037522987
 32
0.0430000020423904
 13
-0.0790000037522987
 23
-0.0790000037522987
 33
0.0430000020423904
0
3DFACE
8
8
 62
8
 10
0.0790000037522987
 20
-0.0658700821691882
 30
0.0430000020423904
 11
0.0790000037522987
 21
-0.0790000037522987
 31
0.0430000020423904
 12
-0.0790000037522987
 22
-0.0790000037522987
 32
0.0430000020423904
 13
-0.0790000037522987
 23
-0.0790000037522987
 33
0.0430000020423904
0
3DFACE
8
8
 62
8
 10
0.138500006578397
 20
0.0658700821691882
 30
0.0430000020423904
 11
-0.0790000037522987
 21
-0.0790000037522987
 31
0.0430000020423904
 12
-0.0790000037522987
 22
-0.0658700821691882
 32
0.0430000020423904
 13
-0.0790000037522987
 23
-0.0658700821691882
 33
0.0430000020423904
0
3DFACE
8
8
 62
8
 10
-0.0790000037522987
 20
-0.0658700821691882
 30
0
 11
-0.138500006578397
 21
-0.0658700821691882
 31
0
 12
-0.138500006578397
 22
-0.0658700821691882
 32
0.0430000020423904
 13
-0.0790000037522987
 23
-0.0658700821691882
 33
0.0430000020423904
0
3DFACE
8
8
 62
8
 10
-0.138500006578397
 20
-0.0658700821691882
 30
0
 11
-0.138500006578397
 21
0.0658700821691882
 31
0
 12
-0.138500006578397
 22
0.0658700821691882
 32
0.0430000020423904
 13
-0.138500006578397
 23
-0.0658700821691882
 33
0.0430000020423904
0
3DFACE
8
8
 62
8
 10
-0.138500006578397
 20
0.0658700821691882
 30
0
 11
-0.0790000037522987
 21
0.0658700821691882
 31
0
 12
-0.0790000037522987
 22
0.0658700821691882
 32
0.0430000020423904
 13
-0.138500006578397
 23
0.0658700821691882
 33
0.0430000020423904
0
3DFACE
8
8
 62
8
 10
-0.0790000037522987
 20
0.0658700821691882
 30
0
 11
-0.0790000037522987
 21
0.0790000037522987
 31
0
 12
-0.0790000037522987
 22
0.0790000037522987
 32
0.0430000020423904
 13
-0.0790000037522987
 23
0.0658700821691882
 33
0.0430000020423904
0
3DFACE
8
8
 62
8
 10
-0.0790000037522987
 20
0.0790000037522987
 30
0
 11
0.0790000037522987
 21
0.0790000037522987
 31
0
 12
0.0790000037522987
 22
0.0790000037522987
 32
0.0430000020423904
 13
-0.0790000037522987
 23
0.0790000037522987
 33
0.0430000020423904
0
3DFACE
8
8
 62
8
 10
0.0790000037522987
 20
0.0790000037522987
 30
0
 11
0.0790000037522987
 21
0.0658700821691882
 31
0
 12
0.0790000037522987
 22
0.0658700821691882
 32
0.0430000020423904
 13
0.0790000037522987
 23
0.0790000037522987
 33
0.0430000020423904
0
3DFACE
8
8
 62
8
 10
0.0790000037522987
 20
0.0658700821691882
 30
0
 11
0.138500006578397
 21
0.0658700821691882
 31
0
 12
0.138500006578397
 22
0.0658700821691882
 32
0.0430000020423904
 13
0.0790000037522987
 23
0.0658700821691882
 33
0.0430000020423904
0
3DFACE
8
8
 62
8
 10
0.138500006578397
 20
0.0658700821691882
 30
0
 11
0.138500006578397
 21
-0.0658700821691882
 31
0
 12
0.138500006578397
 22
-0.0658700821691882
 32
0.0430000020423904
 13
0.138500006578397
 23
0.0658700821691882
 33
0.0430000020423904
0
3DFACE
8
8
 62
8
 10
0.138500006578397
 20
-0.0658700821691882
 30
0
 11
0.0790000037522987
 21
-0.0658700821691882
 31
0
 12
0.0790000037522987
 22
-0.0658700821691882
 32
0.0430000020423904
 13
0.138500006578397
 23
-0.0658700821691882
 33
0.0430000020423904
0
3DFACE
8
8
 62
8
 10
0.0790000037522987
 20
-0.0658700821691882
 30
0
 11
0.0790000037522987
 21
-0.0790000037522987
 31
0
 12
0.0790000037522987
 22
-0.0790000037522987
 32
0.0430000020423904
 13
0.0790000037522987
 23
-0.0658700821691882
 33
0.0430000020423904
0
3DFACE
8
8
 62
8
 10
0.0790000037522987
 20
-0.0790000037522987
 30
0
 11
-0.0790000037522987
 21
-0.0790000037522987
 31
0
 12
-0.0790000037522987
 22
-0.0790000037522987
 32
0.0430000020423904
 13
0.0790000037522987
 23
-0.0790000037522987
 33
0.0430000020423904
0
3DFACE
8
8
 62
8
 10
-0.0790000037522987
 20
-0.0790000037522987
 30
0
 11
-0.0790000037522987
 21
-0.0658700821691882
 31
0
 12
-0.0790000037522987
 22
-0.0658700821691882
 32
0.0430000020423904
 13
-0.0790000037522987
 23
-0.0790000037522987
 33
0.0430000020423904
 0
ENDBLK
 0
BLOCK
 70
0
 2
TOP_VALOR_Polygon_102
 10
0
 20
0
 30
0
0
3DFACE
8
23
 62
23
 10
-0.143500006815884
 20
-0.0690000032773241
 30
0
 11
-0.143500006815884
 21
0.0690000032773241
 31
0
 12
0.143500006815884
 22
0.0690000032773241
 32
0
 13
0.143500006815884
 23
-0.0690000032773241
 33
0
0
3DFACE
8
23
 62
23
 10
-0.143500006815884
 20
-0.0690000032773241
 30
0.0430000020423904
 11
-0.143500006815884
 21
0.0690000032773241
 31
0.0430000020423904
 12
0.143500006815884
 22
0.0690000032773241
 32
0.0430000020423904
 13
0.143500006815884
 23
-0.0690000032773241
 33
0.0430000020423904
0
3DFACE
8
23
 62
23
 10
0.143500006815884
 20
-0.0690000032773241
 30
0
 11
-0.143500006815884
 21
-0.0690000032773241
 31
0
 12
-0.143500006815884
 22
-0.0690000032773241
 32
0.0430000020423904
 13
0.143500006815884
 23
-0.0690000032773241
 33
0.0430000020423904
0
3DFACE
8
23
 62
23
 10
-0.143500006815884
 20
-0.0690000032773241
 30
0
 11
-0.143500006815884
 21
0.0690000032773241
 31
0
 12
-0.143500006815884
 22
0.0690000032773241
 32
0.0430000020423904
 13
-0.143500006815884
 23
-0.0690000032773241
 33
0.0430000020423904
0
3DFACE
8
23
 62
23
 10
-0.143500006815884
 20
0.0690000032773241
 30
0
 11
0.143500006815884
 21
0.0690000032773241
 31
0
 12
0.143500006815884
 22
0.0690000032773241
 32
0.0430000020423904
 13
-0.143500006815884
 23
0.0690000032773241
 33
0.0430000020423904
0
3DFACE
8
23
 62
23
 10
0.143500006815884
 20
0.0690000032773241
 30
0
 11
0.143500006815884
 21
-0.0690000032773241
 31
0
 12
0.143500006815884
 22
-0.0690000032773241
 32
0.0430000020423904
 13
0.143500006815884
 23
0.0690000032773241
 33
0.0430000020423904
 0
ENDBLK
0
ENDSEC
0
SECTION
2
ENTITIES
 0
INSERT
 8
2
 2
TOP_SILKSCREEN_Polygon_31
 10
0
 20
0
 30
0
 41
1
 42
1
 43
1
 0
INSERT
 8
8
 2
TOP_PLACE_BOUND_Polygon_84
 10
0
 20
0
 30
0
 41
1
 42
1
 43
1
 0
INSERT
 8
23
 2
TOP_VALOR_Polygon_102
 10
0
 20
0
 30
0
 41
1
 42
1
 43
1
0
ENDSEC
 0
EOF

