 0
SECTION
 2
HEADER
 0
ENDSEC
 0
SECTION
 2
TABLES
 0
ENDSEC
 0
SECTION
 2
BLOCKS
0
BLOCK
70
0
2
PW20
10
0
20
0
30
0
999
##### Poly 1 ####
0
POLYLINE
5
36
70
1
8
2
6
CONTINUOUS
66
1
10
0
20
0
30
0
39
.047
0
VERTEX
8
2
6
CONTINUOUS
 10
-.164
 20
-.10766
 30
0
0
VERTEX
8
2
6
CONTINUOUS
 10
-.164
 20
-.12266
 30
0
0
VERTEX
8
2
6
CONTINUOUS
 10
-.154
 20
-.12266
 30
0
0
VERTEX
8
2
6
CONTINUOUS
 10
-.154
 20
-.10766
 30
0
0
SEQEND
0
3DFACE
5
49
8
0
6
CONTINUOUS
 10
-.164
 20
-.10766
 30
.047
 11
-.164
 21
-.12266
 31
.047
 12
-.154
 22
-.12266
 32
.047
 13
-.154
 23
-.10766
 33
.047
0
3DFACE
5
49
8
0
6
CONTINUOUS
 10
-.164
 20
-.10766
 30
0
 11
-.164
 21
-.12266
 31
0
 12
-.154
 22
-.12266
 32
0
 13
-.154
 23
-.10766
 33
0
999
##### Poly 62 ####
0
POLYLINE
5
36
70
1
8
2
6
CONTINUOUS
66
1
10
0
20
0
30
0
39
.047
0
VERTEX
8
2
6
CONTINUOUS
 10
.164
 20
.12266
 30
0
0
VERTEX
8
2
6
CONTINUOUS
 10
.164
 20
.10766
 30
0
0
VERTEX
8
2
6
CONTINUOUS
 10
.154
 20
.10766
 30
0
0
VERTEX
8
2
6
CONTINUOUS
 10
.154
 20
.12266
 30
0
0
SEQEND
0
3DFACE
5
49
8
0
6
CONTINUOUS
 10
.164
 20
.12266
 30
.047
 11
.164
 21
.10766
 31
.047
 12
.154
 22
.10766
 32
.047
 13
.154
 23
.12266
 33
.047
0
3DFACE
5
49
8
0
6
CONTINUOUS
 10
.164
 20
.12266
 30
0
 11
.164
 21
.10766
 31
0
 12
.154
 22
.10766
 32
0
 13
.154
 23
.12266
 33
0
999
##### Poly 155 ####
0
POLYLINE
5
36
70
1
8
8
6
CONTINUOUS
66
1
10
0
20
0
30
0
39
.047
0
VERTEX
8
8
6
CONTINUOUS
 10
-.154
 20
-.13216
 30
0
0
VERTEX
8
8
6
CONTINUOUS
 10
-.154
 20
.13216
 30
0
0
VERTEX
8
8
6
CONTINUOUS
 10
-.0985
 20
.13216
 30
0
0
VERTEX
8
8
6
CONTINUOUS
 10
-.0985
 20
.14
 30
0
0
VERTEX
8
8
6
CONTINUOUS
 10
.0985
 20
.14
 30
0
0
VERTEX
8
8
6
CONTINUOUS
 10
.0985
 20
.13216
 30
0
0
VERTEX
8
8
6
CONTINUOUS
 10
.154
 20
.13216
 30
0
0
VERTEX
8
8
6
CONTINUOUS
 10
.154
 20
-.13216
 30
0
0
VERTEX
8
8
6
CONTINUOUS
 10
.0985
 20
-.13216
 30
0
0
VERTEX
8
8
6
CONTINUOUS
 10
.0985
 20
-.14
 30
0
0
VERTEX
8
8
6
CONTINUOUS
 10
-.0985
 20
-.14
 30
0
0
VERTEX
8
8
6
CONTINUOUS
 10
-.0985
 20
-.13216
 30
0
0
SEQEND
999
##### Poly 173 ####
0
POLYLINE
5
36
70
1
8
23
6
CONTINUOUS
66
1
10
0
20
0
30
0
39
.047
0
VERTEX
8
23
6
CONTINUOUS
 10
-.169
 20
-.14
 30
0
0
VERTEX
8
23
6
CONTINUOUS
 10
-.169
 20
.14
 30
0
0
VERTEX
8
23
6
CONTINUOUS
 10
.169
 20
.14
 30
0
0
VERTEX
8
23
6
CONTINUOUS
 10
.169
 20
-.14
 30
0
0
SEQEND
0
3DFACE
5
49
8
0
6
CONTINUOUS
 10
-.169
 20
-.14
 30
.047
 11
-.169
 21
.14
 31
.047
 12
.169
 22
.14
 32
.047
 13
.169
 23
-.14
 33
.047
0
3DFACE
5
49
8
0
6
CONTINUOUS
 10
-.169
 20
-.14
 30
0
 11
-.169
 21
.14
 31
0
 12
.169
 22
.14
 32
0
 13
.169
 23
-.14
 33
0
0
ENDBLK
0
BLOCK
70
0
2
PW20-L
10
0
20
0
30
0
999
##### Poly 1 ####
0
POLYLINE
5
36
70
1
8
2
6
CONTINUOUS
66
1
10
0
20
0
30
0
39
.047
0
VERTEX
8
2
6
CONTINUOUS
 10
-.156
 20
-.10766
 30
0
0
VERTEX
8
2
6
CONTINUOUS
 10
-.156
 20
-.12266
 30
0
0
VERTEX
8
2
6
CONTINUOUS
 10
-.146
 20
-.12266
 30
0
0
VERTEX
8
2
6
CONTINUOUS
 10
-.146
 20
-.10766
 30
0
0
SEQEND
0
3DFACE
5
49
8
0
6
CONTINUOUS
 10
-.156
 20
-.10766
 30
.047
 11
-.156
 21
-.12266
 31
.047
 12
-.146
 22
-.12266
 32
.047
 13
-.146
 23
-.10766
 33
.047
0
3DFACE
5
49
8
0
6
CONTINUOUS
 10
-.156
 20
-.10766
 30
0
 11
-.156
 21
-.12266
 31
0
 12
-.146
 22
-.12266
 32
0
 13
-.146
 23
-.10766
 33
0
999
##### Poly 62 ####
0
POLYLINE
5
36
70
1
8
2
6
CONTINUOUS
66
1
10
0
20
0
30
0
39
.047
0
VERTEX
8
2
6
CONTINUOUS
 10
.156
 20
.12266
 30
0
0
VERTEX
8
2
6
CONTINUOUS
 10
.156
 20
.10766
 30
0
0
VERTEX
8
2
6
CONTINUOUS
 10
.146
 20
.10766
 30
0
0
VERTEX
8
2
6
CONTINUOUS
 10
.146
 20
.12266
 30
0
0
SEQEND
0
3DFACE
5
49
8
0
6
CONTINUOUS
 10
.156
 20
.12266
 30
.047
 11
.156
 21
.10766
 31
.047
 12
.146
 22
.10766
 32
.047
 13
.146
 23
.12266
 33
.047
0
3DFACE
5
49
8
0
6
CONTINUOUS
 10
.156
 20
.12266
 30
0
 11
.156
 21
.10766
 31
0
 12
.146
 22
.10766
 32
0
 13
.146
 23
.12266
 33
0
999
##### Poly 155 ####
0
POLYLINE
5
36
70
1
8
8
6
CONTINUOUS
66
1
10
0
20
0
30
0
39
.047
0
VERTEX
8
8
6
CONTINUOUS
 10
-.14
 20
-.12516
 30
0
0
VERTEX
8
8
6
CONTINUOUS
 10
-.14
 20
.12516
 30
0
0
VERTEX
8
8
6
CONTINUOUS
 10
-.0925
 20
.12516
 30
0
0
VERTEX
8
8
6
CONTINUOUS
 10
-.0925
 20
.134
 30
0
0
VERTEX
8
8
6
CONTINUOUS
 10
.0925
 20
.134
 30
0
0
VERTEX
8
8
6
CONTINUOUS
 10
.0925
 20
.12516
 30
0
0
VERTEX
8
8
6
CONTINUOUS
 10
.14
 20
.12516
 30
0
0
VERTEX
8
8
6
CONTINUOUS
 10
.14
 20
-.12516
 30
0
0
VERTEX
8
8
6
CONTINUOUS
 10
.0925
 20
-.12516
 30
0
0
VERTEX
8
8
6
CONTINUOUS
 10
.0925
 20
-.134
 30
0
0
VERTEX
8
8
6
CONTINUOUS
 10
-.0925
 20
-.134
 30
0
0
VERTEX
8
8
6
CONTINUOUS
 10
-.0925
 20
-.12516
 30
0
0
SEQEND
999
##### Poly 173 ####
0
POLYLINE
5
36
70
1
8
23
6
CONTINUOUS
66
1
10
0
20
0
30
0
39
.047
0
VERTEX
8
23
6
CONTINUOUS
 10
-.161
 20
-.14
 30
0
0
VERTEX
8
23
6
CONTINUOUS
 10
-.161
 20
.14
 30
0
0
VERTEX
8
23
6
CONTINUOUS
 10
.161
 20
.14
 30
0
0
VERTEX
8
23
6
CONTINUOUS
 10
.161
 20
-.14
 30
0
0
SEQEND
0
3DFACE
5
49
8
0
6
CONTINUOUS
 10
-.161
 20
-.14
 30
.047
 11
-.161
 21
.14
 31
.047
 12
.161
 22
.14
 32
.047
 13
.161
 23
-.14
 33
.047
0
3DFACE
5
49
8
0
6
CONTINUOUS
 10
-.161
 20
-.14
 30
0
 11
-.161
 21
.14
 31
0
 12
.161
 22
.14
 32
0
 13
.161
 23
-.14
 33
0
0
ENDBLK
0
BLOCK
70
0
2
PW20-M
10
0
20
0
30
0
999
##### Poly 1 ####
0
POLYLINE
5
36
70
1
8
2
6
CONTINUOUS
66
1
10
0
20
0
30
0
39
.047
0
VERTEX
8
2
6
CONTINUOUS
 10
-.172
 20
-.10766
 30
0
0
VERTEX
8
2
6
CONTINUOUS
 10
-.172
 20
-.12266
 30
0
0
VERTEX
8
2
6
CONTINUOUS
 10
-.162
 20
-.12266
 30
0
0
VERTEX
8
2
6
CONTINUOUS
 10
-.162
 20
-.10766
 30
0
0
SEQEND
0
3DFACE
5
49
8
0
6
CONTINUOUS
 10
-.172
 20
-.10766
 30
.047
 11
-.172
 21
-.12266
 31
.047
 12
-.162
 22
-.12266
 32
.047
 13
-.162
 23
-.10766
 33
.047
0
3DFACE
5
49
8
0
6
CONTINUOUS
 10
-.172
 20
-.10766
 30
0
 11
-.172
 21
-.12266
 31
0
 12
-.162
 22
-.12266
 32
0
 13
-.162
 23
-.10766
 33
0
999
##### Poly 62 ####
0
POLYLINE
5
36
70
1
8
2
6
CONTINUOUS
66
1
10
0
20
0
30
0
39
.047
0
VERTEX
8
2
6
CONTINUOUS
 10
.172
 20
.12266
 30
0
0
VERTEX
8
2
6
CONTINUOUS
 10
.172
 20
.10766
 30
0
0
VERTEX
8
2
6
CONTINUOUS
 10
.162
 20
.10766
 30
0
0
VERTEX
8
2
6
CONTINUOUS
 10
.162
 20
.12266
 30
0
0
SEQEND
0
3DFACE
5
49
8
0
6
CONTINUOUS
 10
.172
 20
.12266
 30
.047
 11
.172
 21
.10766
 31
.047
 12
.162
 22
.10766
 32
.047
 13
.162
 23
.12266
 33
.047
0
3DFACE
5
49
8
0
6
CONTINUOUS
 10
.172
 20
.12266
 30
0
 11
.172
 21
.10766
 31
0
 12
.162
 22
.10766
 32
0
 13
.162
 23
.12266
 33
0
999
##### Poly 155 ####
0
POLYLINE
5
36
70
1
8
8
6
CONTINUOUS
66
1
10
0
20
0
30
0
39
.047
0
VERTEX
8
8
6
CONTINUOUS
 10
-.172
 20
-.14216
 30
0
0
VERTEX
8
8
6
CONTINUOUS
 10
-.172
 20
.14216
 30
0
0
VERTEX
8
8
6
CONTINUOUS
 10
-.1085
 20
.14216
 30
0
0
VERTEX
8
8
6
CONTINUOUS
 10
-.1085
 20
.15
 30
0
0
VERTEX
8
8
6
CONTINUOUS
 10
.1085
 20
.15
 30
0
0
VERTEX
8
8
6
CONTINUOUS
 10
.1085
 20
.14216
 30
0
0
VERTEX
8
8
6
CONTINUOUS
 10
.172
 20
.14216
 30
0
0
VERTEX
8
8
6
CONTINUOUS
 10
.172
 20
-.14216
 30
0
0
VERTEX
8
8
6
CONTINUOUS
 10
.1085
 20
-.14216
 30
0
0
VERTEX
8
8
6
CONTINUOUS
 10
.1085
 20
-.15
 30
0
0
VERTEX
8
8
6
CONTINUOUS
 10
-.1085
 20
-.15
 30
0
0
VERTEX
8
8
6
CONTINUOUS
 10
-.1085
 20
-.14216
 30
0
0
SEQEND
999
##### Poly 173 ####
0
POLYLINE
5
36
70
1
8
23
6
CONTINUOUS
66
1
10
0
20
0
30
0
39
.047
0
VERTEX
8
23
6
CONTINUOUS
 10
-.177
 20
-.14
 30
0
0
VERTEX
8
23
6
CONTINUOUS
 10
-.177
 20
.14
 30
0
0
VERTEX
8
23
6
CONTINUOUS
 10
.177
 20
.14
 30
0
0
VERTEX
8
23
6
CONTINUOUS
 10
.177
 20
-.14
 30
0
0
SEQEND
0
3DFACE
5
49
8
0
6
CONTINUOUS
 10
-.177
 20
-.14
 30
.047
 11
-.177
 21
.14
 31
.047
 12
.177
 22
.14
 32
.047
 13
.177
 23
-.14
 33
.047
0
3DFACE
5
49
8
0
6
CONTINUOUS
 10
-.177
 20
-.14
 30
0
 11
-.177
 21
.14
 31
0
 12
.177
 22
.14
 32
0
 13
.177
 23
-.14
 33
0
0
ENDBLK
0
ENDSEC
0
SECTION
2
ENTITIES
 0
INSERT
 8
0
 2
PW20
 10
0
 20
0
 30
0
 41
1
 42
1
 43
1
 0
INSERT
 8
0
 2
PW20-L
 10
2
 20
0
 30
0
 41
1
 42
1
 43
1
 0
INSERT
 8
0
 2
PW20-M
 10
0
 20
2
 30
0
 41
1
 42
1
 43
1
0
ENDSEC
 0
EOF

