 999
VISION3D DXF
0
SECTION
2
HEADER
0
ENDSEC
0
SECTION
2
TABLES
0
ENDSEC
0
SECTION
2
BLOCKS
 0
BLOCK
 70
0
 2
TOP_PLACE_BOUND_Polygon_28
 10
0
 20
0
 30
0
0
3DFACE
8
8
 62
8
 10
-0.0950000045122579
 20
-0.064370082097942
 30
0
 11
-0.0950000045122579
 21
0.064370082097942
 31
0
 12
-0.0790000037522987
 22
0.064370082097942
 32
0
 13
-0.0790000037522987
 23
0.064370082097942
 33
0
0
3DFACE
8
8
 62
8
 10
-0.0950000045122579
 20
-0.064370082097942
 30
0
 11
-0.0790000037522987
 21
0.064370082097942
 31
0
 12
0.0790000037522987
 22
0.0790000037522987
 32
0
 13
0.0790000037522987
 23
0.0790000037522987
 33
0
0
3DFACE
8
8
 62
8
 10
-0.0790000037522987
 20
0.064370082097942
 30
0
 11
-0.0790000037522987
 21
0.0790000037522987
 31
0
 12
0.0790000037522987
 22
0.0790000037522987
 32
0
 13
0.0790000037522987
 23
0.0790000037522987
 33
0
0
3DFACE
8
8
 62
8
 10
-0.0950000045122579
 20
-0.064370082097942
 30
0
 11
0.0790000037522987
 21
0.0790000037522987
 31
0
 12
0.0790000037522987
 22
0.064370082097942
 32
0
 13
0.0790000037522987
 23
0.064370082097942
 33
0
0
3DFACE
8
8
 62
8
 10
-0.0950000045122579
 20
-0.064370082097942
 30
0
 11
0.0790000037522987
 21
0.064370082097942
 31
0
 12
0.0950000045122579
 22
0.064370082097942
 32
0
 13
0.0950000045122579
 23
0.064370082097942
 33
0
0
3DFACE
8
8
 62
8
 10
-0.0950000045122579
 20
-0.064370082097942
 30
0
 11
0.0950000045122579
 21
0.064370082097942
 31
0
 12
-0.0790000037522987
 22
-0.064370082097942
 32
0
 13
-0.0790000037522987
 23
-0.064370082097942
 33
0
0
3DFACE
8
8
 62
8
 10
0.0950000045122579
 20
0.064370082097942
 30
0
 11
0.0950000045122579
 21
-0.064370082097942
 31
0
 12
0.0790000037522987
 22
-0.064370082097942
 32
0
 13
0.0790000037522987
 23
-0.064370082097942
 33
0
0
3DFACE
8
8
 62
8
 10
0.0950000045122579
 20
0.064370082097942
 30
0
 11
0.0790000037522987
 21
-0.064370082097942
 31
0
 12
-0.0790000037522987
 22
-0.0790000037522987
 32
0
 13
-0.0790000037522987
 23
-0.0790000037522987
 33
0
0
3DFACE
8
8
 62
8
 10
0.0790000037522987
 20
-0.064370082097942
 30
0
 11
0.0790000037522987
 21
-0.0790000037522987
 31
0
 12
-0.0790000037522987
 22
-0.0790000037522987
 32
0
 13
-0.0790000037522987
 23
-0.0790000037522987
 33
0
0
3DFACE
8
8
 62
8
 10
0.0950000045122579
 20
0.064370082097942
 30
0
 11
-0.0790000037522987
 21
-0.0790000037522987
 31
0
 12
-0.0790000037522987
 22
-0.064370082097942
 32
0
 13
-0.0790000037522987
 23
-0.064370082097942
 33
0
0
3DFACE
8
8
 62
8
 10
-0.0950000045122579
 20
-0.064370082097942
 30
0.0390000018524006
 11
-0.0950000045122579
 21
0.064370082097942
 31
0.0390000018524006
 12
-0.0790000037522987
 22
0.064370082097942
 32
0.0390000018524006
 13
-0.0790000037522987
 23
0.064370082097942
 33
0.0390000018524006
0
3DFACE
8
8
 62
8
 10
-0.0950000045122579
 20
-0.064370082097942
 30
0.0390000018524006
 11
-0.0790000037522987
 21
0.064370082097942
 31
0.0390000018524006
 12
0.0790000037522987
 22
0.0790000037522987
 32
0.0390000018524006
 13
0.0790000037522987
 23
0.0790000037522987
 33
0.0390000018524006
0
3DFACE
8
8
 62
8
 10
-0.0790000037522987
 20
0.064370082097942
 30
0.0390000018524006
 11
-0.0790000037522987
 21
0.0790000037522987
 31
0.0390000018524006
 12
0.0790000037522987
 22
0.0790000037522987
 32
0.0390000018524006
 13
0.0790000037522987
 23
0.0790000037522987
 33
0.0390000018524006
0
3DFACE
8
8
 62
8
 10
-0.0950000045122579
 20
-0.064370082097942
 30
0.0390000018524006
 11
0.0790000037522987
 21
0.0790000037522987
 31
0.0390000018524006
 12
0.0790000037522987
 22
0.064370082097942
 32
0.0390000018524006
 13
0.0790000037522987
 23
0.064370082097942
 33
0.0390000018524006
0
3DFACE
8
8
 62
8
 10
-0.0950000045122579
 20
-0.064370082097942
 30
0.0390000018524006
 11
0.0790000037522987
 21
0.064370082097942
 31
0.0390000018524006
 12
0.0950000045122579
 22
0.064370082097942
 32
0.0390000018524006
 13
0.0950000045122579
 23
0.064370082097942
 33
0.0390000018524006
0
3DFACE
8
8
 62
8
 10
-0.0950000045122579
 20
-0.064370082097942
 30
0.0390000018524006
 11
0.0950000045122579
 21
0.064370082097942
 31
0.0390000018524006
 12
-0.0790000037522987
 22
-0.064370082097942
 32
0.0390000018524006
 13
-0.0790000037522987
 23
-0.064370082097942
 33
0.0390000018524006
0
3DFACE
8
8
 62
8
 10
0.0950000045122579
 20
0.064370082097942
 30
0.0390000018524006
 11
0.0950000045122579
 21
-0.064370082097942
 31
0.0390000018524006
 12
0.0790000037522987
 22
-0.064370082097942
 32
0.0390000018524006
 13
0.0790000037522987
 23
-0.064370082097942
 33
0.0390000018524006
0
3DFACE
8
8
 62
8
 10
0.0950000045122579
 20
0.064370082097942
 30
0.0390000018524006
 11
0.0790000037522987
 21
-0.064370082097942
 31
0.0390000018524006
 12
-0.0790000037522987
 22
-0.0790000037522987
 32
0.0390000018524006
 13
-0.0790000037522987
 23
-0.0790000037522987
 33
0.0390000018524006
0
3DFACE
8
8
 62
8
 10
0.0790000037522987
 20
-0.064370082097942
 30
0.0390000018524006
 11
0.0790000037522987
 21
-0.0790000037522987
 31
0.0390000018524006
 12
-0.0790000037522987
 22
-0.0790000037522987
 32
0.0390000018524006
 13
-0.0790000037522987
 23
-0.0790000037522987
 33
0.0390000018524006
0
3DFACE
8
8
 62
8
 10
0.0950000045122579
 20
0.064370082097942
 30
0.0390000018524006
 11
-0.0790000037522987
 21
-0.0790000037522987
 31
0.0390000018524006
 12
-0.0790000037522987
 22
-0.064370082097942
 32
0.0390000018524006
 13
-0.0790000037522987
 23
-0.064370082097942
 33
0.0390000018524006
0
3DFACE
8
8
 62
8
 10
-0.0790000037522987
 20
-0.064370082097942
 30
0
 11
-0.0950000045122579
 21
-0.064370082097942
 31
0
 12
-0.0950000045122579
 22
-0.064370082097942
 32
0.0390000018524006
 13
-0.0790000037522987
 23
-0.064370082097942
 33
0.0390000018524006
0
3DFACE
8
8
 62
8
 10
-0.0950000045122579
 20
-0.064370082097942
 30
0
 11
-0.0950000045122579
 21
0.064370082097942
 31
0
 12
-0.0950000045122579
 22
0.064370082097942
 32
0.0390000018524006
 13
-0.0950000045122579
 23
-0.064370082097942
 33
0.0390000018524006
0
3DFACE
8
8
 62
8
 10
-0.0950000045122579
 20
0.064370082097942
 30
0
 11
-0.0790000037522987
 21
0.064370082097942
 31
0
 12
-0.0790000037522987
 22
0.064370082097942
 32
0.0390000018524006
 13
-0.0950000045122579
 23
0.064370082097942
 33
0.0390000018524006
0
3DFACE
8
8
 62
8
 10
-0.0790000037522987
 20
0.064370082097942
 30
0
 11
-0.0790000037522987
 21
0.0790000037522987
 31
0
 12
-0.0790000037522987
 22
0.0790000037522987
 32
0.0390000018524006
 13
-0.0790000037522987
 23
0.064370082097942
 33
0.0390000018524006
0
3DFACE
8
8
 62
8
 10
-0.0790000037522987
 20
0.0790000037522987
 30
0
 11
0.0790000037522987
 21
0.0790000037522987
 31
0
 12
0.0790000037522987
 22
0.0790000037522987
 32
0.0390000018524006
 13
-0.0790000037522987
 23
0.0790000037522987
 33
0.0390000018524006
0
3DFACE
8
8
 62
8
 10
0.0790000037522987
 20
0.0790000037522987
 30
0
 11
0.0790000037522987
 21
0.064370082097942
 31
0
 12
0.0790000037522987
 22
0.064370082097942
 32
0.0390000018524006
 13
0.0790000037522987
 23
0.0790000037522987
 33
0.0390000018524006
0
3DFACE
8
8
 62
8
 10
0.0790000037522987
 20
0.064370082097942
 30
0
 11
0.0950000045122579
 21
0.064370082097942
 31
0
 12
0.0950000045122579
 22
0.064370082097942
 32
0.0390000018524006
 13
0.0790000037522987
 23
0.064370082097942
 33
0.0390000018524006
0
3DFACE
8
8
 62
8
 10
0.0950000045122579
 20
0.064370082097942
 30
0
 11
0.0950000045122579
 21
-0.064370082097942
 31
0
 12
0.0950000045122579
 22
-0.064370082097942
 32
0.0390000018524006
 13
0.0950000045122579
 23
0.064370082097942
 33
0.0390000018524006
0
3DFACE
8
8
 62
8
 10
0.0950000045122579
 20
-0.064370082097942
 30
0
 11
0.0790000037522987
 21
-0.064370082097942
 31
0
 12
0.0790000037522987
 22
-0.064370082097942
 32
0.0390000018524006
 13
0.0950000045122579
 23
-0.064370082097942
 33
0.0390000018524006
0
3DFACE
8
8
 62
8
 10
0.0790000037522987
 20
-0.064370082097942
 30
0
 11
0.0790000037522987
 21
-0.0790000037522987
 31
0
 12
0.0790000037522987
 22
-0.0790000037522987
 32
0.0390000018524006
 13
0.0790000037522987
 23
-0.064370082097942
 33
0.0390000018524006
0
3DFACE
8
8
 62
8
 10
0.0790000037522987
 20
-0.0790000037522987
 30
0
 11
-0.0790000037522987
 21
-0.0790000037522987
 31
0
 12
-0.0790000037522987
 22
-0.0790000037522987
 32
0.0390000018524006
 13
0.0790000037522987
 23
-0.0790000037522987
 33
0.0390000018524006
0
3DFACE
8
8
 62
8
 10
-0.0790000037522987
 20
-0.0790000037522987
 30
0
 11
-0.0790000037522987
 21
-0.064370082097942
 31
0
 12
-0.0790000037522987
 22
-0.064370082097942
 32
0.0390000018524006
 13
-0.0790000037522987
 23
-0.0790000037522987
 33
0.0390000018524006
 0
ENDBLK
 0
BLOCK
 70
0
 2
TOP_VALOR_Polygon_53
 10
0
 20
0
 30
0
0
3DFACE
8
23
 62
23
 10
-0.100000004749745
 20
-0.0690000032773241
 30
0
 11
-0.100000004749745
 21
0.0690000032773241
 31
0
 12
0.100000004749745
 22
0.0690000032773241
 32
0
 13
0.100000004749745
 23
-0.0690000032773241
 33
0
0
3DFACE
8
23
 62
23
 10
-0.100000004749745
 20
-0.0690000032773241
 30
0.0390000018524006
 11
-0.100000004749745
 21
0.0690000032773241
 31
0.0390000018524006
 12
0.100000004749745
 22
0.0690000032773241
 32
0.0390000018524006
 13
0.100000004749745
 23
-0.0690000032773241
 33
0.0390000018524006
0
3DFACE
8
23
 62
23
 10
0.100000004749745
 20
-0.0690000032773241
 30
0
 11
-0.100000004749745
 21
-0.0690000032773241
 31
0
 12
-0.100000004749745
 22
-0.0690000032773241
 32
0.0390000018524006
 13
0.100000004749745
 23
-0.0690000032773241
 33
0.0390000018524006
0
3DFACE
8
23
 62
23
 10
-0.100000004749745
 20
-0.0690000032773241
 30
0
 11
-0.100000004749745
 21
0.0690000032773241
 31
0
 12
-0.100000004749745
 22
0.0690000032773241
 32
0.0390000018524006
 13
-0.100000004749745
 23
-0.0690000032773241
 33
0.0390000018524006
0
3DFACE
8
23
 62
23
 10
-0.100000004749745
 20
0.0690000032773241
 30
0
 11
0.100000004749745
 21
0.0690000032773241
 31
0
 12
0.100000004749745
 22
0.0690000032773241
 32
0.0390000018524006
 13
-0.100000004749745
 23
0.0690000032773241
 33
0.0390000018524006
0
3DFACE
8
23
 62
23
 10
0.100000004749745
 20
0.0690000032773241
 30
0
 11
0.100000004749745
 21
-0.0690000032773241
 31
0
 12
0.100000004749745
 22
-0.0690000032773241
 32
0.0390000018524006
 13
0.100000004749745
 23
0.0690000032773241
 33
0.0390000018524006
 0
ENDBLK
0
ENDSEC
0
SECTION
2
ENTITIES
 0
INSERT
 8
8
 2
TOP_PLACE_BOUND_Polygon_28
 10
0
 20
0
 30
0
 41
1
 42
1
 43
1
 0
INSERT
 8
23
 2
TOP_VALOR_Polygon_53
 10
0
 20
0
 30
0
 41
1
 42
1
 43
1
0
ENDSEC
 0
EOF

