 999
VISION3D DXF
0
SECTION
2
HEADER
0
ENDSEC
0
SECTION
2
TABLES
0
ENDSEC
0
SECTION
2
BLOCKS
 0
BLOCK
 70
0
 2
TOP_SILKSCREEN_Polygon_9
 10
0
 20
0
 30
0
0
3DFACE
8
2
 62
2
 10
0.0890000042272732
 20
-0.00234250011126278
 30
0
 11
0.0890000042272732
 21
-0.0173425008237246
 31
0
 12
0.0790000037522987
 22
-0.0173425008237246
 32
0
 13
0.0790000037522987
 23
-0.00234250011126278
 33
0
0
3DFACE
8
2
 62
2
 10
0.0890000042272732
 20
-0.00234250011126278
 30
0.0320000015199184
 11
0.0890000042272732
 21
-0.0173425008237246
 31
0.0320000015199184
 12
0.0790000037522987
 22
-0.0173425008237246
 32
0.0320000015199184
 13
0.0790000037522987
 23
-0.00234250011126278
 33
0.0320000015199184
0
3DFACE
8
2
 62
2
 10
0.0790000037522987
 20
-0.00234250011126278
 30
0
 11
0.0890000042272732
 21
-0.00234250011126278
 31
0
 12
0.0890000042272732
 22
-0.00234250011126278
 32
0.0320000015199184
 13
0.0790000037522987
 23
-0.00234250011126278
 33
0.0320000015199184
0
3DFACE
8
2
 62
2
 10
0.0890000042272732
 20
-0.00234250011126278
 30
0
 11
0.0890000042272732
 21
-0.0173425008237246
 31
0
 12
0.0890000042272732
 22
-0.0173425008237246
 32
0.0320000015199184
 13
0.0890000042272732
 23
-0.00234250011126278
 33
0.0320000015199184
0
3DFACE
8
2
 62
2
 10
0.0890000042272732
 20
-0.0173425008237246
 30
0
 11
0.0790000037522987
 21
-0.0173425008237246
 31
0
 12
0.0790000037522987
 22
-0.0173425008237246
 32
0.0320000015199184
 13
0.0890000042272732
 23
-0.0173425008237246
 33
0.0320000015199184
0
3DFACE
8
2
 62
2
 10
0.0790000037522987
 20
-0.0173425008237246
 30
0
 11
0.0790000037522987
 21
-0.00234250011126278
 31
0
 12
0.0790000037522987
 22
-0.00234250011126278
 32
0.0320000015199184
 13
0.0790000037522987
 23
-0.0173425008237246
 33
0.0320000015199184
 0
ENDBLK
 0
BLOCK
 70
0
 2
TOP_PLACE_BOUND_Polygon_55
 10
0
 20
0
 30
0
0
3DFACE
8
8
 62
8
 10
-0.0650000030873343
 20
-0.0650000030873343
 30
0
 11
-0.0650000030873343
 21
-0.0385275630177051
 31
0
 12
-0.0385275630177051
 22
0.0650000030873343
 32
0
 13
-0.0385275630177051
 23
0.0650000030873343
 33
0
0
3DFACE
8
8
 62
8
 10
-0.0650000030873343
 20
-0.0385275630177051
 30
0
 11
-0.0730000034673139
 21
-0.0385275630177051
 31
0
 12
-0.0730000034673139
 22
0.0385275630177051
 32
0
 13
-0.0730000034673139
 23
0.0385275630177051
 33
0
0
3DFACE
8
8
 62
8
 10
-0.0650000030873343
 20
-0.0385275630177051
 30
0
 11
-0.0730000034673139
 21
0.0385275630177051
 31
0
 12
-0.0650000030873343
 22
0.0385275630177051
 32
0
 13
-0.0650000030873343
 23
0.0385275630177051
 33
0
0
3DFACE
8
8
 62
8
 10
-0.0650000030873343
 20
-0.0385275630177051
 30
0
 11
-0.0650000030873343
 21
0.0385275630177051
 31
0
 12
-0.0385275630177051
 22
0.0650000030873343
 32
0
 13
-0.0385275630177051
 23
0.0650000030873343
 33
0
0
3DFACE
8
8
 62
8
 10
-0.0650000030873343
 20
0.0385275630177051
 30
0
 11
-0.0650000030873343
 21
0.0650000030873343
 31
0
 12
-0.0385275630177051
 22
0.0650000030873343
 32
0
 13
-0.0385275630177051
 23
0.0650000030873343
 33
0
0
3DFACE
8
8
 62
8
 10
-0.0650000030873343
 20
-0.0650000030873343
 30
0
 11
-0.0385275630177051
 21
0.0650000030873343
 31
0
 12
0.0385275630177051
 22
0.0730000034673139
 32
0
 13
0.0385275630177051
 23
0.0730000034673139
 33
0
0
3DFACE
8
8
 62
8
 10
-0.0385275630177051
 20
0.0650000030873343
 30
0
 11
-0.0385275630177051
 21
0.0730000034673139
 31
0
 12
0.0385275630177051
 22
0.0730000034673139
 32
0
 13
0.0385275630177051
 23
0.0730000034673139
 33
0
0
3DFACE
8
8
 62
8
 10
-0.0650000030873343
 20
-0.0650000030873343
 30
0
 11
0.0385275630177051
 21
0.0730000034673139
 31
0
 12
0.0385275630177051
 22
0.0650000030873343
 32
0
 13
0.0385275630177051
 23
0.0650000030873343
 33
0
0
3DFACE
8
8
 62
8
 10
-0.0650000030873343
 20
-0.0650000030873343
 30
0
 11
0.0385275630177051
 21
0.0650000030873343
 31
0
 12
0.0650000030873343
 22
0.0650000030873343
 32
0
 13
0.0650000030873343
 23
0.0650000030873343
 33
0
0
3DFACE
8
8
 62
8
 10
-0.0650000030873343
 20
-0.0650000030873343
 30
0
 11
0.0650000030873343
 21
0.0650000030873343
 31
0
 12
0.0650000030873343
 22
0.0385275630177051
 32
0
 13
0.0650000030873343
 23
0.0385275630177051
 33
0
0
3DFACE
8
8
 62
8
 10
-0.0650000030873343
 20
-0.0650000030873343
 30
0
 11
0.0650000030873343
 21
0.0385275630177051
 31
0
 12
0.0730000034673139
 22
0.0385275630177051
 32
0
 13
0.0730000034673139
 23
0.0385275630177051
 33
0
0
3DFACE
8
8
 62
8
 10
-0.0650000030873343
 20
-0.0650000030873343
 30
0
 11
0.0730000034673139
 21
0.0385275630177051
 31
0
 12
0.0650000030873343
 22
-0.0385275630177051
 32
0
 13
0.0650000030873343
 23
-0.0385275630177051
 33
0
0
3DFACE
8
8
 62
8
 10
0.0730000034673139
 20
0.0385275630177051
 30
0
 11
0.0730000034673139
 21
-0.0385275630177051
 31
0
 12
0.0650000030873343
 22
-0.0385275630177051
 32
0
 13
0.0650000030873343
 23
-0.0385275630177051
 33
0
0
3DFACE
8
8
 62
8
 10
-0.0650000030873343
 20
-0.0650000030873343
 30
0
 11
0.0650000030873343
 21
-0.0385275630177051
 31
0
 12
-0.0385275630177051
 22
-0.0650000030873343
 32
0
 13
-0.0385275630177051
 23
-0.0650000030873343
 33
0
0
3DFACE
8
8
 62
8
 10
0.0650000030873343
 20
-0.0385275630177051
 30
0
 11
0.0650000030873343
 21
-0.0650000030873343
 31
0
 12
0.0385275630177051
 22
-0.0650000030873343
 32
0
 13
0.0385275630177051
 23
-0.0650000030873343
 33
0
0
3DFACE
8
8
 62
8
 10
0.0650000030873343
 20
-0.0385275630177051
 30
0
 11
0.0385275630177051
 21
-0.0650000030873343
 31
0
 12
-0.0385275630177051
 22
-0.0730000034673139
 32
0
 13
-0.0385275630177051
 23
-0.0730000034673139
 33
0
0
3DFACE
8
8
 62
8
 10
0.0385275630177051
 20
-0.0650000030873343
 30
0
 11
0.0385275630177051
 21
-0.0730000034673139
 31
0
 12
-0.0385275630177051
 22
-0.0730000034673139
 32
0
 13
-0.0385275630177051
 23
-0.0730000034673139
 33
0
0
3DFACE
8
8
 62
8
 10
0.0650000030873343
 20
-0.0385275630177051
 30
0
 11
-0.0385275630177051
 21
-0.0730000034673139
 31
0
 12
-0.0385275630177051
 22
-0.0650000030873343
 32
0
 13
-0.0385275630177051
 23
-0.0650000030873343
 33
0
0
3DFACE
8
8
 62
8
 10
-0.0650000030873343
 20
-0.0650000030873343
 30
0.0320000015199184
 11
-0.0650000030873343
 21
-0.0385275630177051
 31
0.0320000015199184
 12
-0.0385275630177051
 22
0.0650000030873343
 32
0.0320000015199184
 13
-0.0385275630177051
 23
0.0650000030873343
 33
0.0320000015199184
0
3DFACE
8
8
 62
8
 10
-0.0650000030873343
 20
-0.0385275630177051
 30
0.0320000015199184
 11
-0.0730000034673139
 21
-0.0385275630177051
 31
0.0320000015199184
 12
-0.0730000034673139
 22
0.0385275630177051
 32
0.0320000015199184
 13
-0.0730000034673139
 23
0.0385275630177051
 33
0.0320000015199184
0
3DFACE
8
8
 62
8
 10
-0.0650000030873343
 20
-0.0385275630177051
 30
0.0320000015199184
 11
-0.0730000034673139
 21
0.0385275630177051
 31
0.0320000015199184
 12
-0.0650000030873343
 22
0.0385275630177051
 32
0.0320000015199184
 13
-0.0650000030873343
 23
0.0385275630177051
 33
0.0320000015199184
0
3DFACE
8
8
 62
8
 10
-0.0650000030873343
 20
-0.0385275630177051
 30
0.0320000015199184
 11
-0.0650000030873343
 21
0.0385275630177051
 31
0.0320000015199184
 12
-0.0385275630177051
 22
0.0650000030873343
 32
0.0320000015199184
 13
-0.0385275630177051
 23
0.0650000030873343
 33
0.0320000015199184
0
3DFACE
8
8
 62
8
 10
-0.0650000030873343
 20
0.0385275630177051
 30
0.0320000015199184
 11
-0.0650000030873343
 21
0.0650000030873343
 31
0.0320000015199184
 12
-0.0385275630177051
 22
0.0650000030873343
 32
0.0320000015199184
 13
-0.0385275630177051
 23
0.0650000030873343
 33
0.0320000015199184
0
3DFACE
8
8
 62
8
 10
-0.0650000030873343
 20
-0.0650000030873343
 30
0.0320000015199184
 11
-0.0385275630177051
 21
0.0650000030873343
 31
0.0320000015199184
 12
0.0385275630177051
 22
0.0730000034673139
 32
0.0320000015199184
 13
0.0385275630177051
 23
0.0730000034673139
 33
0.0320000015199184
0
3DFACE
8
8
 62
8
 10
-0.0385275630177051
 20
0.0650000030873343
 30
0.0320000015199184
 11
-0.0385275630177051
 21
0.0730000034673139
 31
0.0320000015199184
 12
0.0385275630177051
 22
0.0730000034673139
 32
0.0320000015199184
 13
0.0385275630177051
 23
0.0730000034673139
 33
0.0320000015199184
0
3DFACE
8
8
 62
8
 10
-0.0650000030873343
 20
-0.0650000030873343
 30
0.0320000015199184
 11
0.0385275630177051
 21
0.0730000034673139
 31
0.0320000015199184
 12
0.0385275630177051
 22
0.0650000030873343
 32
0.0320000015199184
 13
0.0385275630177051
 23
0.0650000030873343
 33
0.0320000015199184
0
3DFACE
8
8
 62
8
 10
-0.0650000030873343
 20
-0.0650000030873343
 30
0.0320000015199184
 11
0.0385275630177051
 21
0.0650000030873343
 31
0.0320000015199184
 12
0.0650000030873343
 22
0.0650000030873343
 32
0.0320000015199184
 13
0.0650000030873343
 23
0.0650000030873343
 33
0.0320000015199184
0
3DFACE
8
8
 62
8
 10
-0.0650000030873343
 20
-0.0650000030873343
 30
0.0320000015199184
 11
0.0650000030873343
 21
0.0650000030873343
 31
0.0320000015199184
 12
0.0650000030873343
 22
0.0385275630177051
 32
0.0320000015199184
 13
0.0650000030873343
 23
0.0385275630177051
 33
0.0320000015199184
0
3DFACE
8
8
 62
8
 10
-0.0650000030873343
 20
-0.0650000030873343
 30
0.0320000015199184
 11
0.0650000030873343
 21
0.0385275630177051
 31
0.0320000015199184
 12
0.0730000034673139
 22
0.0385275630177051
 32
0.0320000015199184
 13
0.0730000034673139
 23
0.0385275630177051
 33
0.0320000015199184
0
3DFACE
8
8
 62
8
 10
-0.0650000030873343
 20
-0.0650000030873343
 30
0.0320000015199184
 11
0.0730000034673139
 21
0.0385275630177051
 31
0.0320000015199184
 12
0.0650000030873343
 22
-0.0385275630177051
 32
0.0320000015199184
 13
0.0650000030873343
 23
-0.0385275630177051
 33
0.0320000015199184
0
3DFACE
8
8
 62
8
 10
0.0730000034673139
 20
0.0385275630177051
 30
0.0320000015199184
 11
0.0730000034673139
 21
-0.0385275630177051
 31
0.0320000015199184
 12
0.0650000030873343
 22
-0.0385275630177051
 32
0.0320000015199184
 13
0.0650000030873343
 23
-0.0385275630177051
 33
0.0320000015199184
0
3DFACE
8
8
 62
8
 10
-0.0650000030873343
 20
-0.0650000030873343
 30
0.0320000015199184
 11
0.0650000030873343
 21
-0.0385275630177051
 31
0.0320000015199184
 12
-0.0385275630177051
 22
-0.0650000030873343
 32
0.0320000015199184
 13
-0.0385275630177051
 23
-0.0650000030873343
 33
0.0320000015199184
0
3DFACE
8
8
 62
8
 10
0.0650000030873343
 20
-0.0385275630177051
 30
0.0320000015199184
 11
0.0650000030873343
 21
-0.0650000030873343
 31
0.0320000015199184
 12
0.0385275630177051
 22
-0.0650000030873343
 32
0.0320000015199184
 13
0.0385275630177051
 23
-0.0650000030873343
 33
0.0320000015199184
0
3DFACE
8
8
 62
8
 10
0.0650000030873343
 20
-0.0385275630177051
 30
0.0320000015199184
 11
0.0385275630177051
 21
-0.0650000030873343
 31
0.0320000015199184
 12
-0.0385275630177051
 22
-0.0730000034673139
 32
0.0320000015199184
 13
-0.0385275630177051
 23
-0.0730000034673139
 33
0.0320000015199184
0
3DFACE
8
8
 62
8
 10
0.0385275630177051
 20
-0.0650000030873343
 30
0.0320000015199184
 11
0.0385275630177051
 21
-0.0730000034673139
 31
0.0320000015199184
 12
-0.0385275630177051
 22
-0.0730000034673139
 32
0.0320000015199184
 13
-0.0385275630177051
 23
-0.0730000034673139
 33
0.0320000015199184
0
3DFACE
8
8
 62
8
 10
0.0650000030873343
 20
-0.0385275630177051
 30
0.0320000015199184
 11
-0.0385275630177051
 21
-0.0730000034673139
 31
0.0320000015199184
 12
-0.0385275630177051
 22
-0.0650000030873343
 32
0.0320000015199184
 13
-0.0385275630177051
 23
-0.0650000030873343
 33
0.0320000015199184
0
3DFACE
8
8
 62
8
 10
-0.0385275630177051
 20
-0.0650000030873343
 30
0
 11
-0.0650000030873343
 21
-0.0650000030873343
 31
0
 12
-0.0650000030873343
 22
-0.0650000030873343
 32
0.0320000015199184
 13
-0.0385275630177051
 23
-0.0650000030873343
 33
0.0320000015199184
0
3DFACE
8
8
 62
8
 10
-0.0650000030873343
 20
-0.0650000030873343
 30
0
 11
-0.0650000030873343
 21
-0.0385275630177051
 31
0
 12
-0.0650000030873343
 22
-0.0385275630177051
 32
0.0320000015199184
 13
-0.0650000030873343
 23
-0.0650000030873343
 33
0.0320000015199184
0
3DFACE
8
8
 62
8
 10
-0.0650000030873343
 20
-0.0385275630177051
 30
0
 11
-0.0730000034673139
 21
-0.0385275630177051
 31
0
 12
-0.0730000034673139
 22
-0.0385275630177051
 32
0.0320000015199184
 13
-0.0650000030873343
 23
-0.0385275630177051
 33
0.0320000015199184
0
3DFACE
8
8
 62
8
 10
-0.0730000034673139
 20
-0.0385275630177051
 30
0
 11
-0.0730000034673139
 21
0.0385275630177051
 31
0
 12
-0.0730000034673139
 22
0.0385275630177051
 32
0.0320000015199184
 13
-0.0730000034673139
 23
-0.0385275630177051
 33
0.0320000015199184
0
3DFACE
8
8
 62
8
 10
-0.0730000034673139
 20
0.0385275630177051
 30
0
 11
-0.0650000030873343
 21
0.0385275630177051
 31
0
 12
-0.0650000030873343
 22
0.0385275630177051
 32
0.0320000015199184
 13
-0.0730000034673139
 23
0.0385275630177051
 33
0.0320000015199184
0
3DFACE
8
8
 62
8
 10
-0.0650000030873343
 20
0.0385275630177051
 30
0
 11
-0.0650000030873343
 21
0.0650000030873343
 31
0
 12
-0.0650000030873343
 22
0.0650000030873343
 32
0.0320000015199184
 13
-0.0650000030873343
 23
0.0385275630177051
 33
0.0320000015199184
0
3DFACE
8
8
 62
8
 10
-0.0650000030873343
 20
0.0650000030873343
 30
0
 11
-0.0385275630177051
 21
0.0650000030873343
 31
0
 12
-0.0385275630177051
 22
0.0650000030873343
 32
0.0320000015199184
 13
-0.0650000030873343
 23
0.0650000030873343
 33
0.0320000015199184
0
3DFACE
8
8
 62
8
 10
-0.0385275630177051
 20
0.0650000030873343
 30
0
 11
-0.0385275630177051
 21
0.0730000034673139
 31
0
 12
-0.0385275630177051
 22
0.0730000034673139
 32
0.0320000015199184
 13
-0.0385275630177051
 23
0.0650000030873343
 33
0.0320000015199184
0
3DFACE
8
8
 62
8
 10
-0.0385275630177051
 20
0.0730000034673139
 30
0
 11
0.0385275630177051
 21
0.0730000034673139
 31
0
 12
0.0385275630177051
 22
0.0730000034673139
 32
0.0320000015199184
 13
-0.0385275630177051
 23
0.0730000034673139
 33
0.0320000015199184
0
3DFACE
8
8
 62
8
 10
0.0385275630177051
 20
0.0730000034673139
 30
0
 11
0.0385275630177051
 21
0.0650000030873343
 31
0
 12
0.0385275630177051
 22
0.0650000030873343
 32
0.0320000015199184
 13
0.0385275630177051
 23
0.0730000034673139
 33
0.0320000015199184
0
3DFACE
8
8
 62
8
 10
0.0385275630177051
 20
0.0650000030873343
 30
0
 11
0.0650000030873343
 21
0.0650000030873343
 31
0
 12
0.0650000030873343
 22
0.0650000030873343
 32
0.0320000015199184
 13
0.0385275630177051
 23
0.0650000030873343
 33
0.0320000015199184
0
3DFACE
8
8
 62
8
 10
0.0650000030873343
 20
0.0650000030873343
 30
0
 11
0.0650000030873343
 21
0.0385275630177051
 31
0
 12
0.0650000030873343
 22
0.0385275630177051
 32
0.0320000015199184
 13
0.0650000030873343
 23
0.0650000030873343
 33
0.0320000015199184
0
3DFACE
8
8
 62
8
 10
0.0650000030873343
 20
0.0385275630177051
 30
0
 11
0.0730000034673139
 21
0.0385275630177051
 31
0
 12
0.0730000034673139
 22
0.0385275630177051
 32
0.0320000015199184
 13
0.0650000030873343
 23
0.0385275630177051
 33
0.0320000015199184
0
3DFACE
8
8
 62
8
 10
0.0730000034673139
 20
0.0385275630177051
 30
0
 11
0.0730000034673139
 21
-0.0385275630177051
 31
0
 12
0.0730000034673139
 22
-0.0385275630177051
 32
0.0320000015199184
 13
0.0730000034673139
 23
0.0385275630177051
 33
0.0320000015199184
0
3DFACE
8
8
 62
8
 10
0.0730000034673139
 20
-0.0385275630177051
 30
0
 11
0.0650000030873343
 21
-0.0385275630177051
 31
0
 12
0.0650000030873343
 22
-0.0385275630177051
 32
0.0320000015199184
 13
0.0730000034673139
 23
-0.0385275630177051
 33
0.0320000015199184
0
3DFACE
8
8
 62
8
 10
0.0650000030873343
 20
-0.0385275630177051
 30
0
 11
0.0650000030873343
 21
-0.0650000030873343
 31
0
 12
0.0650000030873343
 22
-0.0650000030873343
 32
0.0320000015199184
 13
0.0650000030873343
 23
-0.0385275630177051
 33
0.0320000015199184
0
3DFACE
8
8
 62
8
 10
0.0650000030873343
 20
-0.0650000030873343
 30
0
 11
0.0385275630177051
 21
-0.0650000030873343
 31
0
 12
0.0385275630177051
 22
-0.0650000030873343
 32
0.0320000015199184
 13
0.0650000030873343
 23
-0.0650000030873343
 33
0.0320000015199184
0
3DFACE
8
8
 62
8
 10
0.0385275630177051
 20
-0.0650000030873343
 30
0
 11
0.0385275630177051
 21
-0.0730000034673139
 31
0
 12
0.0385275630177051
 22
-0.0730000034673139
 32
0.0320000015199184
 13
0.0385275630177051
 23
-0.0650000030873343
 33
0.0320000015199184
0
3DFACE
8
8
 62
8
 10
0.0385275630177051
 20
-0.0730000034673139
 30
0
 11
-0.0385275630177051
 21
-0.0730000034673139
 31
0
 12
-0.0385275630177051
 22
-0.0730000034673139
 32
0.0320000015199184
 13
0.0385275630177051
 23
-0.0730000034673139
 33
0.0320000015199184
0
3DFACE
8
8
 62
8
 10
-0.0385275630177051
 20
-0.0730000034673139
 30
0
 11
-0.0385275630177051
 21
-0.0650000030873343
 31
0
 12
-0.0385275630177051
 22
-0.0650000030873343
 32
0.0320000015199184
 13
-0.0385275630177051
 23
-0.0730000034673139
 33
0.0320000015199184
 0
ENDBLK
 0
BLOCK
 70
0
 2
TOP_VALOR_Polygon_87
 10
0
 20
0
 30
0
0
3DFACE
8
23
 62
23
 10
-0.0940000044647604
 20
-0.0940000044647604
 30
0
 11
-0.0940000044647604
 21
0.0940000044647604
 31
0
 12
0.0940000044647604
 22
0.0940000044647604
 32
0
 13
0.0940000044647604
 23
-0.0940000044647604
 33
0
0
3DFACE
8
23
 62
23
 10
-0.0940000044647604
 20
-0.0940000044647604
 30
0.0320000015199184
 11
-0.0940000044647604
 21
0.0940000044647604
 31
0.0320000015199184
 12
0.0940000044647604
 22
0.0940000044647604
 32
0.0320000015199184
 13
0.0940000044647604
 23
-0.0940000044647604
 33
0.0320000015199184
0
3DFACE
8
23
 62
23
 10
0.0940000044647604
 20
-0.0940000044647604
 30
0
 11
-0.0940000044647604
 21
-0.0940000044647604
 31
0
 12
-0.0940000044647604
 22
-0.0940000044647604
 32
0.0320000015199184
 13
0.0940000044647604
 23
-0.0940000044647604
 33
0.0320000015199184
0
3DFACE
8
23
 62
23
 10
-0.0940000044647604
 20
-0.0940000044647604
 30
0
 11
-0.0940000044647604
 21
0.0940000044647604
 31
0
 12
-0.0940000044647604
 22
0.0940000044647604
 32
0.0320000015199184
 13
-0.0940000044647604
 23
-0.0940000044647604
 33
0.0320000015199184
0
3DFACE
8
23
 62
23
 10
-0.0940000044647604
 20
0.0940000044647604
 30
0
 11
0.0940000044647604
 21
0.0940000044647604
 31
0
 12
0.0940000044647604
 22
0.0940000044647604
 32
0.0320000015199184
 13
-0.0940000044647604
 23
0.0940000044647604
 33
0.0320000015199184
0
3DFACE
8
23
 62
23
 10
0.0940000044647604
 20
0.0940000044647604
 30
0
 11
0.0940000044647604
 21
-0.0940000044647604
 31
0
 12
0.0940000044647604
 22
-0.0940000044647604
 32
0.0320000015199184
 13
0.0940000044647604
 23
0.0940000044647604
 33
0.0320000015199184
 0
ENDBLK
0
ENDSEC
0
SECTION
2
ENTITIES
 0
INSERT
 8
2
 2
TOP_SILKSCREEN_Polygon_9
 10
0
 20
0
 30
0
 41
1
 42
1
 43
1
 0
INSERT
 8
8
 2
TOP_PLACE_BOUND_Polygon_55
 10
0
 20
0
 30
0
 41
1
 42
1
 43
1
 0
INSERT
 8
23
 2
TOP_VALOR_Polygon_87
 10
0
 20
0
 30
0
 41
1
 42
1
 43
1
0
ENDSEC
 0
EOF

