 999
VISION3D DXF
0
SECTION
2
HEADER
0
ENDSEC
0
SECTION
2
TABLES
0
ENDSEC
0
SECTION
2
BLOCKS
 0
BLOCK
 70
0
 2
TOP_SILKSCREEN_Polygon_9
 10
0
 20
0
 30
0
0
3DFACE
8
2
 62
2
 10
0.0970000046072528
 20
-0.00234250011126278
 30
0
 11
0.0970000046072528
 21
-0.0173425008237246
 31
0
 12
0.0870000041322783
 22
-0.0173425008237246
 32
0
 13
0.0870000041322783
 23
-0.00234250011126278
 33
0
0
3DFACE
8
2
 62
2
 10
0.0970000046072528
 20
-0.00234250011126278
 30
0.0320000015199184
 11
0.0970000046072528
 21
-0.0173425008237246
 31
0.0320000015199184
 12
0.0870000041322783
 22
-0.0173425008237246
 32
0.0320000015199184
 13
0.0870000041322783
 23
-0.00234250011126278
 33
0.0320000015199184
0
3DFACE
8
2
 62
2
 10
0.0870000041322783
 20
-0.00234250011126278
 30
0
 11
0.0970000046072528
 21
-0.00234250011126278
 31
0
 12
0.0970000046072528
 22
-0.00234250011126278
 32
0.0320000015199184
 13
0.0870000041322783
 23
-0.00234250011126278
 33
0.0320000015199184
0
3DFACE
8
2
 62
2
 10
0.0970000046072528
 20
-0.00234250011126278
 30
0
 11
0.0970000046072528
 21
-0.0173425008237246
 31
0
 12
0.0970000046072528
 22
-0.0173425008237246
 32
0.0320000015199184
 13
0.0970000046072528
 23
-0.00234250011126278
 33
0.0320000015199184
0
3DFACE
8
2
 62
2
 10
0.0970000046072528
 20
-0.0173425008237246
 30
0
 11
0.0870000041322783
 21
-0.0173425008237246
 31
0
 12
0.0870000041322783
 22
-0.0173425008237246
 32
0.0320000015199184
 13
0.0970000046072528
 23
-0.0173425008237246
 33
0.0320000015199184
0
3DFACE
8
2
 62
2
 10
0.0870000041322783
 20
-0.0173425008237246
 30
0
 11
0.0870000041322783
 21
-0.00234250011126278
 31
0
 12
0.0870000041322783
 22
-0.00234250011126278
 32
0.0320000015199184
 13
0.0870000041322783
 23
-0.0173425008237246
 33
0.0320000015199184
 0
ENDBLK
 0
BLOCK
 70
0
 2
TOP_PLACE_BOUND_Polygon_55
 10
0
 20
0
 30
0
0
3DFACE
8
8
 62
8
 10
-0.0810000038472936
 20
-0.0810000038472936
 30
0
 11
-0.0810000038472936
 21
-0.0545275637776643
 31
0
 12
-0.0545275637776643
 22
0.0810000038472936
 32
0
 13
-0.0545275637776643
 23
0.0810000038472936
 33
0
0
3DFACE
8
8
 62
8
 10
-0.0810000038472936
 20
-0.0545275637776643
 30
0
 11
-0.0970000046072528
 21
-0.0545275637776643
 31
0
 12
-0.0970000046072528
 22
0.0545275637776643
 32
0
 13
-0.0970000046072528
 23
0.0545275637776643
 33
0
0
3DFACE
8
8
 62
8
 10
-0.0810000038472936
 20
-0.0545275637776643
 30
0
 11
-0.0970000046072528
 21
0.0545275637776643
 31
0
 12
-0.0810000038472936
 22
0.0545275637776643
 32
0
 13
-0.0810000038472936
 23
0.0545275637776643
 33
0
0
3DFACE
8
8
 62
8
 10
-0.0810000038472936
 20
-0.0545275637776643
 30
0
 11
-0.0810000038472936
 21
0.0545275637776643
 31
0
 12
-0.0545275637776643
 22
0.0810000038472936
 32
0
 13
-0.0545275637776643
 23
0.0810000038472936
 33
0
0
3DFACE
8
8
 62
8
 10
-0.0810000038472936
 20
0.0545275637776643
 30
0
 11
-0.0810000038472936
 21
0.0810000038472936
 31
0
 12
-0.0545275637776643
 22
0.0810000038472936
 32
0
 13
-0.0545275637776643
 23
0.0810000038472936
 33
0
0
3DFACE
8
8
 62
8
 10
-0.0810000038472936
 20
-0.0810000038472936
 30
0
 11
-0.0545275637776643
 21
0.0810000038472936
 31
0
 12
0.0545275637776643
 22
0.0970000046072528
 32
0
 13
0.0545275637776643
 23
0.0970000046072528
 33
0
0
3DFACE
8
8
 62
8
 10
-0.0545275637776643
 20
0.0810000038472936
 30
0
 11
-0.0545275637776643
 21
0.0970000046072528
 31
0
 12
0.0545275637776643
 22
0.0970000046072528
 32
0
 13
0.0545275637776643
 23
0.0970000046072528
 33
0
0
3DFACE
8
8
 62
8
 10
-0.0810000038472936
 20
-0.0810000038472936
 30
0
 11
0.0545275637776643
 21
0.0970000046072528
 31
0
 12
0.0545275637776643
 22
0.0810000038472936
 32
0
 13
0.0545275637776643
 23
0.0810000038472936
 33
0
0
3DFACE
8
8
 62
8
 10
-0.0810000038472936
 20
-0.0810000038472936
 30
0
 11
0.0545275637776643
 21
0.0810000038472936
 31
0
 12
0.0810000038472936
 22
0.0810000038472936
 32
0
 13
0.0810000038472936
 23
0.0810000038472936
 33
0
0
3DFACE
8
8
 62
8
 10
-0.0810000038472936
 20
-0.0810000038472936
 30
0
 11
0.0810000038472936
 21
0.0810000038472936
 31
0
 12
0.0810000038472936
 22
0.0545275637776643
 32
0
 13
0.0810000038472936
 23
0.0545275637776643
 33
0
0
3DFACE
8
8
 62
8
 10
-0.0810000038472936
 20
-0.0810000038472936
 30
0
 11
0.0810000038472936
 21
0.0545275637776643
 31
0
 12
0.0970000046072528
 22
0.0545275637776643
 32
0
 13
0.0970000046072528
 23
0.0545275637776643
 33
0
0
3DFACE
8
8
 62
8
 10
-0.0810000038472936
 20
-0.0810000038472936
 30
0
 11
0.0970000046072528
 21
0.0545275637776643
 31
0
 12
0.0810000038472936
 22
-0.0545275637776643
 32
0
 13
0.0810000038472936
 23
-0.0545275637776643
 33
0
0
3DFACE
8
8
 62
8
 10
0.0970000046072528
 20
0.0545275637776643
 30
0
 11
0.0970000046072528
 21
-0.0545275637776643
 31
0
 12
0.0810000038472936
 22
-0.0545275637776643
 32
0
 13
0.0810000038472936
 23
-0.0545275637776643
 33
0
0
3DFACE
8
8
 62
8
 10
-0.0810000038472936
 20
-0.0810000038472936
 30
0
 11
0.0810000038472936
 21
-0.0545275637776643
 31
0
 12
-0.0545275637776643
 22
-0.0810000038472936
 32
0
 13
-0.0545275637776643
 23
-0.0810000038472936
 33
0
0
3DFACE
8
8
 62
8
 10
0.0810000038472936
 20
-0.0545275637776643
 30
0
 11
0.0810000038472936
 21
-0.0810000038472936
 31
0
 12
0.0545275637776643
 22
-0.0810000038472936
 32
0
 13
0.0545275637776643
 23
-0.0810000038472936
 33
0
0
3DFACE
8
8
 62
8
 10
0.0810000038472936
 20
-0.0545275637776643
 30
0
 11
0.0545275637776643
 21
-0.0810000038472936
 31
0
 12
-0.0545275637776643
 22
-0.0970000046072528
 32
0
 13
-0.0545275637776643
 23
-0.0970000046072528
 33
0
0
3DFACE
8
8
 62
8
 10
0.0545275637776643
 20
-0.0810000038472936
 30
0
 11
0.0545275637776643
 21
-0.0970000046072528
 31
0
 12
-0.0545275637776643
 22
-0.0970000046072528
 32
0
 13
-0.0545275637776643
 23
-0.0970000046072528
 33
0
0
3DFACE
8
8
 62
8
 10
0.0810000038472936
 20
-0.0545275637776643
 30
0
 11
-0.0545275637776643
 21
-0.0970000046072528
 31
0
 12
-0.0545275637776643
 22
-0.0810000038472936
 32
0
 13
-0.0545275637776643
 23
-0.0810000038472936
 33
0
0
3DFACE
8
8
 62
8
 10
-0.0810000038472936
 20
-0.0810000038472936
 30
0.0320000015199184
 11
-0.0810000038472936
 21
-0.0545275637776643
 31
0.0320000015199184
 12
-0.0545275637776643
 22
0.0810000038472936
 32
0.0320000015199184
 13
-0.0545275637776643
 23
0.0810000038472936
 33
0.0320000015199184
0
3DFACE
8
8
 62
8
 10
-0.0810000038472936
 20
-0.0545275637776643
 30
0.0320000015199184
 11
-0.0970000046072528
 21
-0.0545275637776643
 31
0.0320000015199184
 12
-0.0970000046072528
 22
0.0545275637776643
 32
0.0320000015199184
 13
-0.0970000046072528
 23
0.0545275637776643
 33
0.0320000015199184
0
3DFACE
8
8
 62
8
 10
-0.0810000038472936
 20
-0.0545275637776643
 30
0.0320000015199184
 11
-0.0970000046072528
 21
0.0545275637776643
 31
0.0320000015199184
 12
-0.0810000038472936
 22
0.0545275637776643
 32
0.0320000015199184
 13
-0.0810000038472936
 23
0.0545275637776643
 33
0.0320000015199184
0
3DFACE
8
8
 62
8
 10
-0.0810000038472936
 20
-0.0545275637776643
 30
0.0320000015199184
 11
-0.0810000038472936
 21
0.0545275637776643
 31
0.0320000015199184
 12
-0.0545275637776643
 22
0.0810000038472936
 32
0.0320000015199184
 13
-0.0545275637776643
 23
0.0810000038472936
 33
0.0320000015199184
0
3DFACE
8
8
 62
8
 10
-0.0810000038472936
 20
0.0545275637776643
 30
0.0320000015199184
 11
-0.0810000038472936
 21
0.0810000038472936
 31
0.0320000015199184
 12
-0.0545275637776643
 22
0.0810000038472936
 32
0.0320000015199184
 13
-0.0545275637776643
 23
0.0810000038472936
 33
0.0320000015199184
0
3DFACE
8
8
 62
8
 10
-0.0810000038472936
 20
-0.0810000038472936
 30
0.0320000015199184
 11
-0.0545275637776643
 21
0.0810000038472936
 31
0.0320000015199184
 12
0.0545275637776643
 22
0.0970000046072528
 32
0.0320000015199184
 13
0.0545275637776643
 23
0.0970000046072528
 33
0.0320000015199184
0
3DFACE
8
8
 62
8
 10
-0.0545275637776643
 20
0.0810000038472936
 30
0.0320000015199184
 11
-0.0545275637776643
 21
0.0970000046072528
 31
0.0320000015199184
 12
0.0545275637776643
 22
0.0970000046072528
 32
0.0320000015199184
 13
0.0545275637776643
 23
0.0970000046072528
 33
0.0320000015199184
0
3DFACE
8
8
 62
8
 10
-0.0810000038472936
 20
-0.0810000038472936
 30
0.0320000015199184
 11
0.0545275637776643
 21
0.0970000046072528
 31
0.0320000015199184
 12
0.0545275637776643
 22
0.0810000038472936
 32
0.0320000015199184
 13
0.0545275637776643
 23
0.0810000038472936
 33
0.0320000015199184
0
3DFACE
8
8
 62
8
 10
-0.0810000038472936
 20
-0.0810000038472936
 30
0.0320000015199184
 11
0.0545275637776643
 21
0.0810000038472936
 31
0.0320000015199184
 12
0.0810000038472936
 22
0.0810000038472936
 32
0.0320000015199184
 13
0.0810000038472936
 23
0.0810000038472936
 33
0.0320000015199184
0
3DFACE
8
8
 62
8
 10
-0.0810000038472936
 20
-0.0810000038472936
 30
0.0320000015199184
 11
0.0810000038472936
 21
0.0810000038472936
 31
0.0320000015199184
 12
0.0810000038472936
 22
0.0545275637776643
 32
0.0320000015199184
 13
0.0810000038472936
 23
0.0545275637776643
 33
0.0320000015199184
0
3DFACE
8
8
 62
8
 10
-0.0810000038472936
 20
-0.0810000038472936
 30
0.0320000015199184
 11
0.0810000038472936
 21
0.0545275637776643
 31
0.0320000015199184
 12
0.0970000046072528
 22
0.0545275637776643
 32
0.0320000015199184
 13
0.0970000046072528
 23
0.0545275637776643
 33
0.0320000015199184
0
3DFACE
8
8
 62
8
 10
-0.0810000038472936
 20
-0.0810000038472936
 30
0.0320000015199184
 11
0.0970000046072528
 21
0.0545275637776643
 31
0.0320000015199184
 12
0.0810000038472936
 22
-0.0545275637776643
 32
0.0320000015199184
 13
0.0810000038472936
 23
-0.0545275637776643
 33
0.0320000015199184
0
3DFACE
8
8
 62
8
 10
0.0970000046072528
 20
0.0545275637776643
 30
0.0320000015199184
 11
0.0970000046072528
 21
-0.0545275637776643
 31
0.0320000015199184
 12
0.0810000038472936
 22
-0.0545275637776643
 32
0.0320000015199184
 13
0.0810000038472936
 23
-0.0545275637776643
 33
0.0320000015199184
0
3DFACE
8
8
 62
8
 10
-0.0810000038472936
 20
-0.0810000038472936
 30
0.0320000015199184
 11
0.0810000038472936
 21
-0.0545275637776643
 31
0.0320000015199184
 12
-0.0545275637776643
 22
-0.0810000038472936
 32
0.0320000015199184
 13
-0.0545275637776643
 23
-0.0810000038472936
 33
0.0320000015199184
0
3DFACE
8
8
 62
8
 10
0.0810000038472936
 20
-0.0545275637776643
 30
0.0320000015199184
 11
0.0810000038472936
 21
-0.0810000038472936
 31
0.0320000015199184
 12
0.0545275637776643
 22
-0.0810000038472936
 32
0.0320000015199184
 13
0.0545275637776643
 23
-0.0810000038472936
 33
0.0320000015199184
0
3DFACE
8
8
 62
8
 10
0.0810000038472936
 20
-0.0545275637776643
 30
0.0320000015199184
 11
0.0545275637776643
 21
-0.0810000038472936
 31
0.0320000015199184
 12
-0.0545275637776643
 22
-0.0970000046072528
 32
0.0320000015199184
 13
-0.0545275637776643
 23
-0.0970000046072528
 33
0.0320000015199184
0
3DFACE
8
8
 62
8
 10
0.0545275637776643
 20
-0.0810000038472936
 30
0.0320000015199184
 11
0.0545275637776643
 21
-0.0970000046072528
 31
0.0320000015199184
 12
-0.0545275637776643
 22
-0.0970000046072528
 32
0.0320000015199184
 13
-0.0545275637776643
 23
-0.0970000046072528
 33
0.0320000015199184
0
3DFACE
8
8
 62
8
 10
0.0810000038472936
 20
-0.0545275637776643
 30
0.0320000015199184
 11
-0.0545275637776643
 21
-0.0970000046072528
 31
0.0320000015199184
 12
-0.0545275637776643
 22
-0.0810000038472936
 32
0.0320000015199184
 13
-0.0545275637776643
 23
-0.0810000038472936
 33
0.0320000015199184
0
3DFACE
8
8
 62
8
 10
-0.0545275637776643
 20
-0.0810000038472936
 30
0
 11
-0.0810000038472936
 21
-0.0810000038472936
 31
0
 12
-0.0810000038472936
 22
-0.0810000038472936
 32
0.0320000015199184
 13
-0.0545275637776643
 23
-0.0810000038472936
 33
0.0320000015199184
0
3DFACE
8
8
 62
8
 10
-0.0810000038472936
 20
-0.0810000038472936
 30
0
 11
-0.0810000038472936
 21
-0.0545275637776643
 31
0
 12
-0.0810000038472936
 22
-0.0545275637776643
 32
0.0320000015199184
 13
-0.0810000038472936
 23
-0.0810000038472936
 33
0.0320000015199184
0
3DFACE
8
8
 62
8
 10
-0.0810000038472936
 20
-0.0545275637776643
 30
0
 11
-0.0970000046072528
 21
-0.0545275637776643
 31
0
 12
-0.0970000046072528
 22
-0.0545275637776643
 32
0.0320000015199184
 13
-0.0810000038472936
 23
-0.0545275637776643
 33
0.0320000015199184
0
3DFACE
8
8
 62
8
 10
-0.0970000046072528
 20
-0.0545275637776643
 30
0
 11
-0.0970000046072528
 21
0.0545275637776643
 31
0
 12
-0.0970000046072528
 22
0.0545275637776643
 32
0.0320000015199184
 13
-0.0970000046072528
 23
-0.0545275637776643
 33
0.0320000015199184
0
3DFACE
8
8
 62
8
 10
-0.0970000046072528
 20
0.0545275637776643
 30
0
 11
-0.0810000038472936
 21
0.0545275637776643
 31
0
 12
-0.0810000038472936
 22
0.0545275637776643
 32
0.0320000015199184
 13
-0.0970000046072528
 23
0.0545275637776643
 33
0.0320000015199184
0
3DFACE
8
8
 62
8
 10
-0.0810000038472936
 20
0.0545275637776643
 30
0
 11
-0.0810000038472936
 21
0.0810000038472936
 31
0
 12
-0.0810000038472936
 22
0.0810000038472936
 32
0.0320000015199184
 13
-0.0810000038472936
 23
0.0545275637776643
 33
0.0320000015199184
0
3DFACE
8
8
 62
8
 10
-0.0810000038472936
 20
0.0810000038472936
 30
0
 11
-0.0545275637776643
 21
0.0810000038472936
 31
0
 12
-0.0545275637776643
 22
0.0810000038472936
 32
0.0320000015199184
 13
-0.0810000038472936
 23
0.0810000038472936
 33
0.0320000015199184
0
3DFACE
8
8
 62
8
 10
-0.0545275637776643
 20
0.0810000038472936
 30
0
 11
-0.0545275637776643
 21
0.0970000046072528
 31
0
 12
-0.0545275637776643
 22
0.0970000046072528
 32
0.0320000015199184
 13
-0.0545275637776643
 23
0.0810000038472936
 33
0.0320000015199184
0
3DFACE
8
8
 62
8
 10
-0.0545275637776643
 20
0.0970000046072528
 30
0
 11
0.0545275637776643
 21
0.0970000046072528
 31
0
 12
0.0545275637776643
 22
0.0970000046072528
 32
0.0320000015199184
 13
-0.0545275637776643
 23
0.0970000046072528
 33
0.0320000015199184
0
3DFACE
8
8
 62
8
 10
0.0545275637776643
 20
0.0970000046072528
 30
0
 11
0.0545275637776643
 21
0.0810000038472936
 31
0
 12
0.0545275637776643
 22
0.0810000038472936
 32
0.0320000015199184
 13
0.0545275637776643
 23
0.0970000046072528
 33
0.0320000015199184
0
3DFACE
8
8
 62
8
 10
0.0545275637776643
 20
0.0810000038472936
 30
0
 11
0.0810000038472936
 21
0.0810000038472936
 31
0
 12
0.0810000038472936
 22
0.0810000038472936
 32
0.0320000015199184
 13
0.0545275637776643
 23
0.0810000038472936
 33
0.0320000015199184
0
3DFACE
8
8
 62
8
 10
0.0810000038472936
 20
0.0810000038472936
 30
0
 11
0.0810000038472936
 21
0.0545275637776643
 31
0
 12
0.0810000038472936
 22
0.0545275637776643
 32
0.0320000015199184
 13
0.0810000038472936
 23
0.0810000038472936
 33
0.0320000015199184
0
3DFACE
8
8
 62
8
 10
0.0810000038472936
 20
0.0545275637776643
 30
0
 11
0.0970000046072528
 21
0.0545275637776643
 31
0
 12
0.0970000046072528
 22
0.0545275637776643
 32
0.0320000015199184
 13
0.0810000038472936
 23
0.0545275637776643
 33
0.0320000015199184
0
3DFACE
8
8
 62
8
 10
0.0970000046072528
 20
0.0545275637776643
 30
0
 11
0.0970000046072528
 21
-0.0545275637776643
 31
0
 12
0.0970000046072528
 22
-0.0545275637776643
 32
0.0320000015199184
 13
0.0970000046072528
 23
0.0545275637776643
 33
0.0320000015199184
0
3DFACE
8
8
 62
8
 10
0.0970000046072528
 20
-0.0545275637776643
 30
0
 11
0.0810000038472936
 21
-0.0545275637776643
 31
0
 12
0.0810000038472936
 22
-0.0545275637776643
 32
0.0320000015199184
 13
0.0970000046072528
 23
-0.0545275637776643
 33
0.0320000015199184
0
3DFACE
8
8
 62
8
 10
0.0810000038472936
 20
-0.0545275637776643
 30
0
 11
0.0810000038472936
 21
-0.0810000038472936
 31
0
 12
0.0810000038472936
 22
-0.0810000038472936
 32
0.0320000015199184
 13
0.0810000038472936
 23
-0.0545275637776643
 33
0.0320000015199184
0
3DFACE
8
8
 62
8
 10
0.0810000038472936
 20
-0.0810000038472936
 30
0
 11
0.0545275637776643
 21
-0.0810000038472936
 31
0
 12
0.0545275637776643
 22
-0.0810000038472936
 32
0.0320000015199184
 13
0.0810000038472936
 23
-0.0810000038472936
 33
0.0320000015199184
0
3DFACE
8
8
 62
8
 10
0.0545275637776643
 20
-0.0810000038472936
 30
0
 11
0.0545275637776643
 21
-0.0970000046072528
 31
0
 12
0.0545275637776643
 22
-0.0970000046072528
 32
0.0320000015199184
 13
0.0545275637776643
 23
-0.0810000038472936
 33
0.0320000015199184
0
3DFACE
8
8
 62
8
 10
0.0545275637776643
 20
-0.0970000046072528
 30
0
 11
-0.0545275637776643
 21
-0.0970000046072528
 31
0
 12
-0.0545275637776643
 22
-0.0970000046072528
 32
0.0320000015199184
 13
0.0545275637776643
 23
-0.0970000046072528
 33
0.0320000015199184
0
3DFACE
8
8
 62
8
 10
-0.0545275637776643
 20
-0.0970000046072528
 30
0
 11
-0.0545275637776643
 21
-0.0810000038472936
 31
0
 12
-0.0545275637776643
 22
-0.0810000038472936
 32
0.0320000015199184
 13
-0.0545275637776643
 23
-0.0970000046072528
 33
0.0320000015199184
 0
ENDBLK
 0
BLOCK
 70
0
 2
TOP_VALOR_Polygon_87
 10
0
 20
0
 30
0
0
3DFACE
8
23
 62
23
 10
-0.10200000484474
 20
-0.10200000484474
 30
0
 11
-0.10200000484474
 21
0.10200000484474
 31
0
 12
0.10200000484474
 22
0.10200000484474
 32
0
 13
0.10200000484474
 23
-0.10200000484474
 33
0
0
3DFACE
8
23
 62
23
 10
-0.10200000484474
 20
-0.10200000484474
 30
0.0320000015199184
 11
-0.10200000484474
 21
0.10200000484474
 31
0.0320000015199184
 12
0.10200000484474
 22
0.10200000484474
 32
0.0320000015199184
 13
0.10200000484474
 23
-0.10200000484474
 33
0.0320000015199184
0
3DFACE
8
23
 62
23
 10
0.10200000484474
 20
-0.10200000484474
 30
0
 11
-0.10200000484474
 21
-0.10200000484474
 31
0
 12
-0.10200000484474
 22
-0.10200000484474
 32
0.0320000015199184
 13
0.10200000484474
 23
-0.10200000484474
 33
0.0320000015199184
0
3DFACE
8
23
 62
23
 10
-0.10200000484474
 20
-0.10200000484474
 30
0
 11
-0.10200000484474
 21
0.10200000484474
 31
0
 12
-0.10200000484474
 22
0.10200000484474
 32
0.0320000015199184
 13
-0.10200000484474
 23
-0.10200000484474
 33
0.0320000015199184
0
3DFACE
8
23
 62
23
 10
-0.10200000484474
 20
0.10200000484474
 30
0
 11
0.10200000484474
 21
0.10200000484474
 31
0
 12
0.10200000484474
 22
0.10200000484474
 32
0.0320000015199184
 13
-0.10200000484474
 23
0.10200000484474
 33
0.0320000015199184
0
3DFACE
8
23
 62
23
 10
0.10200000484474
 20
0.10200000484474
 30
0
 11
0.10200000484474
 21
-0.10200000484474
 31
0
 12
0.10200000484474
 22
-0.10200000484474
 32
0.0320000015199184
 13
0.10200000484474
 23
0.10200000484474
 33
0.0320000015199184
 0
ENDBLK
0
ENDSEC
0
SECTION
2
ENTITIES
 0
INSERT
 8
2
 2
TOP_SILKSCREEN_Polygon_9
 10
0
 20
0
 30
0
 41
1
 42
1
 43
1
 0
INSERT
 8
8
 2
TOP_PLACE_BOUND_Polygon_55
 10
0
 20
0
 30
0
 41
1
 42
1
 43
1
 0
INSERT
 8
23
 2
TOP_VALOR_Polygon_87
 10
0
 20
0
 30
0
 41
1
 42
1
 43
1
0
ENDSEC
 0
EOF

