 999
VISION3D DXF
0
SECTION
2
HEADER
0
ENDSEC
0
SECTION
2
TABLES
0
ENDSEC
0
SECTION
2
BLOCKS
 0
BLOCK
 70
0
 2
TOP_SILKSCREEN_Polygon_9
 10
0
 20
0
 30
0
0
3DFACE
8
2
 62
2
 10
0.093000004417263
 20
-0.00234250011126278
 30
0
 11
0.093000004417263
 21
-0.0173425008237246
 31
0
 12
0.0830000039422885
 22
-0.0173425008237246
 32
0
 13
0.0830000039422885
 23
-0.00234250011126278
 33
0
0
3DFACE
8
2
 62
2
 10
0.093000004417263
 20
-0.00234250011126278
 30
0.0320000015199184
 11
0.093000004417263
 21
-0.0173425008237246
 31
0.0320000015199184
 12
0.0830000039422885
 22
-0.0173425008237246
 32
0.0320000015199184
 13
0.0830000039422885
 23
-0.00234250011126278
 33
0.0320000015199184
0
3DFACE
8
2
 62
2
 10
0.0830000039422885
 20
-0.00234250011126278
 30
0
 11
0.093000004417263
 21
-0.00234250011126278
 31
0
 12
0.093000004417263
 22
-0.00234250011126278
 32
0.0320000015199184
 13
0.0830000039422885
 23
-0.00234250011126278
 33
0.0320000015199184
0
3DFACE
8
2
 62
2
 10
0.093000004417263
 20
-0.00234250011126278
 30
0
 11
0.093000004417263
 21
-0.0173425008237246
 31
0
 12
0.093000004417263
 22
-0.0173425008237246
 32
0.0320000015199184
 13
0.093000004417263
 23
-0.00234250011126278
 33
0.0320000015199184
0
3DFACE
8
2
 62
2
 10
0.093000004417263
 20
-0.0173425008237246
 30
0
 11
0.0830000039422885
 21
-0.0173425008237246
 31
0
 12
0.0830000039422885
 22
-0.0173425008237246
 32
0.0320000015199184
 13
0.093000004417263
 23
-0.0173425008237246
 33
0.0320000015199184
0
3DFACE
8
2
 62
2
 10
0.0830000039422885
 20
-0.0173425008237246
 30
0
 11
0.0830000039422885
 21
-0.00234250011126278
 31
0
 12
0.0830000039422885
 22
-0.00234250011126278
 32
0.0320000015199184
 13
0.0830000039422885
 23
-0.0173425008237246
 33
0.0320000015199184
 0
ENDBLK
 0
BLOCK
 70
0
 2
TOP_PLACE_BOUND_Polygon_55
 10
0
 20
0
 30
0
0
3DFACE
8
8
 62
8
 10
-0.071000003372319
 20
-0.071000003372319
 30
0
 11
-0.071000003372319
 21
-0.0445275633026898
 31
0
 12
-0.0445275633026898
 22
0.071000003372319
 32
0
 13
-0.0445275633026898
 23
0.071000003372319
 33
0
0
3DFACE
8
8
 62
8
 10
-0.071000003372319
 20
-0.0445275633026898
 30
0
 11
-0.0830000039422885
 21
-0.0445275633026898
 31
0
 12
-0.0830000039422885
 22
0.0445275633026898
 32
0
 13
-0.0830000039422885
 23
0.0445275633026898
 33
0
0
3DFACE
8
8
 62
8
 10
-0.071000003372319
 20
-0.0445275633026898
 30
0
 11
-0.0830000039422885
 21
0.0445275633026898
 31
0
 12
-0.071000003372319
 22
0.0445275633026898
 32
0
 13
-0.071000003372319
 23
0.0445275633026898
 33
0
0
3DFACE
8
8
 62
8
 10
-0.071000003372319
 20
-0.0445275633026898
 30
0
 11
-0.071000003372319
 21
0.0445275633026898
 31
0
 12
-0.0445275633026898
 22
0.071000003372319
 32
0
 13
-0.0445275633026898
 23
0.071000003372319
 33
0
0
3DFACE
8
8
 62
8
 10
-0.071000003372319
 20
0.0445275633026898
 30
0
 11
-0.071000003372319
 21
0.071000003372319
 31
0
 12
-0.0445275633026898
 22
0.071000003372319
 32
0
 13
-0.0445275633026898
 23
0.071000003372319
 33
0
0
3DFACE
8
8
 62
8
 10
-0.071000003372319
 20
-0.071000003372319
 30
0
 11
-0.0445275633026898
 21
0.071000003372319
 31
0
 12
0.0445275633026898
 22
0.0830000039422885
 32
0
 13
0.0445275633026898
 23
0.0830000039422885
 33
0
0
3DFACE
8
8
 62
8
 10
-0.0445275633026898
 20
0.071000003372319
 30
0
 11
-0.0445275633026898
 21
0.0830000039422885
 31
0
 12
0.0445275633026898
 22
0.0830000039422885
 32
0
 13
0.0445275633026898
 23
0.0830000039422885
 33
0
0
3DFACE
8
8
 62
8
 10
-0.071000003372319
 20
-0.071000003372319
 30
0
 11
0.0445275633026898
 21
0.0830000039422885
 31
0
 12
0.0445275633026898
 22
0.071000003372319
 32
0
 13
0.0445275633026898
 23
0.071000003372319
 33
0
0
3DFACE
8
8
 62
8
 10
-0.071000003372319
 20
-0.071000003372319
 30
0
 11
0.0445275633026898
 21
0.071000003372319
 31
0
 12
0.071000003372319
 22
0.071000003372319
 32
0
 13
0.071000003372319
 23
0.071000003372319
 33
0
0
3DFACE
8
8
 62
8
 10
-0.071000003372319
 20
-0.071000003372319
 30
0
 11
0.071000003372319
 21
0.071000003372319
 31
0
 12
0.071000003372319
 22
0.0445275633026898
 32
0
 13
0.071000003372319
 23
0.0445275633026898
 33
0
0
3DFACE
8
8
 62
8
 10
-0.071000003372319
 20
-0.071000003372319
 30
0
 11
0.071000003372319
 21
0.0445275633026898
 31
0
 12
0.0830000039422885
 22
0.0445275633026898
 32
0
 13
0.0830000039422885
 23
0.0445275633026898
 33
0
0
3DFACE
8
8
 62
8
 10
-0.071000003372319
 20
-0.071000003372319
 30
0
 11
0.0830000039422885
 21
0.0445275633026898
 31
0
 12
0.071000003372319
 22
-0.0445275633026898
 32
0
 13
0.071000003372319
 23
-0.0445275633026898
 33
0
0
3DFACE
8
8
 62
8
 10
0.0830000039422885
 20
0.0445275633026898
 30
0
 11
0.0830000039422885
 21
-0.0445275633026898
 31
0
 12
0.071000003372319
 22
-0.0445275633026898
 32
0
 13
0.071000003372319
 23
-0.0445275633026898
 33
0
0
3DFACE
8
8
 62
8
 10
-0.071000003372319
 20
-0.071000003372319
 30
0
 11
0.071000003372319
 21
-0.0445275633026898
 31
0
 12
-0.0445275633026898
 22
-0.071000003372319
 32
0
 13
-0.0445275633026898
 23
-0.071000003372319
 33
0
0
3DFACE
8
8
 62
8
 10
0.071000003372319
 20
-0.0445275633026898
 30
0
 11
0.071000003372319
 21
-0.071000003372319
 31
0
 12
0.0445275633026898
 22
-0.071000003372319
 32
0
 13
0.0445275633026898
 23
-0.071000003372319
 33
0
0
3DFACE
8
8
 62
8
 10
0.071000003372319
 20
-0.0445275633026898
 30
0
 11
0.0445275633026898
 21
-0.071000003372319
 31
0
 12
-0.0445275633026898
 22
-0.0830000039422885
 32
0
 13
-0.0445275633026898
 23
-0.0830000039422885
 33
0
0
3DFACE
8
8
 62
8
 10
0.0445275633026898
 20
-0.071000003372319
 30
0
 11
0.0445275633026898
 21
-0.0830000039422885
 31
0
 12
-0.0445275633026898
 22
-0.0830000039422885
 32
0
 13
-0.0445275633026898
 23
-0.0830000039422885
 33
0
0
3DFACE
8
8
 62
8
 10
0.071000003372319
 20
-0.0445275633026898
 30
0
 11
-0.0445275633026898
 21
-0.0830000039422885
 31
0
 12
-0.0445275633026898
 22
-0.071000003372319
 32
0
 13
-0.0445275633026898
 23
-0.071000003372319
 33
0
0
3DFACE
8
8
 62
8
 10
-0.071000003372319
 20
-0.071000003372319
 30
0.0320000015199184
 11
-0.071000003372319
 21
-0.0445275633026898
 31
0.0320000015199184
 12
-0.0445275633026898
 22
0.071000003372319
 32
0.0320000015199184
 13
-0.0445275633026898
 23
0.071000003372319
 33
0.0320000015199184
0
3DFACE
8
8
 62
8
 10
-0.071000003372319
 20
-0.0445275633026898
 30
0.0320000015199184
 11
-0.0830000039422885
 21
-0.0445275633026898
 31
0.0320000015199184
 12
-0.0830000039422885
 22
0.0445275633026898
 32
0.0320000015199184
 13
-0.0830000039422885
 23
0.0445275633026898
 33
0.0320000015199184
0
3DFACE
8
8
 62
8
 10
-0.071000003372319
 20
-0.0445275633026898
 30
0.0320000015199184
 11
-0.0830000039422885
 21
0.0445275633026898
 31
0.0320000015199184
 12
-0.071000003372319
 22
0.0445275633026898
 32
0.0320000015199184
 13
-0.071000003372319
 23
0.0445275633026898
 33
0.0320000015199184
0
3DFACE
8
8
 62
8
 10
-0.071000003372319
 20
-0.0445275633026898
 30
0.0320000015199184
 11
-0.071000003372319
 21
0.0445275633026898
 31
0.0320000015199184
 12
-0.0445275633026898
 22
0.071000003372319
 32
0.0320000015199184
 13
-0.0445275633026898
 23
0.071000003372319
 33
0.0320000015199184
0
3DFACE
8
8
 62
8
 10
-0.071000003372319
 20
0.0445275633026898
 30
0.0320000015199184
 11
-0.071000003372319
 21
0.071000003372319
 31
0.0320000015199184
 12
-0.0445275633026898
 22
0.071000003372319
 32
0.0320000015199184
 13
-0.0445275633026898
 23
0.071000003372319
 33
0.0320000015199184
0
3DFACE
8
8
 62
8
 10
-0.071000003372319
 20
-0.071000003372319
 30
0.0320000015199184
 11
-0.0445275633026898
 21
0.071000003372319
 31
0.0320000015199184
 12
0.0445275633026898
 22
0.0830000039422885
 32
0.0320000015199184
 13
0.0445275633026898
 23
0.0830000039422885
 33
0.0320000015199184
0
3DFACE
8
8
 62
8
 10
-0.0445275633026898
 20
0.071000003372319
 30
0.0320000015199184
 11
-0.0445275633026898
 21
0.0830000039422885
 31
0.0320000015199184
 12
0.0445275633026898
 22
0.0830000039422885
 32
0.0320000015199184
 13
0.0445275633026898
 23
0.0830000039422885
 33
0.0320000015199184
0
3DFACE
8
8
 62
8
 10
-0.071000003372319
 20
-0.071000003372319
 30
0.0320000015199184
 11
0.0445275633026898
 21
0.0830000039422885
 31
0.0320000015199184
 12
0.0445275633026898
 22
0.071000003372319
 32
0.0320000015199184
 13
0.0445275633026898
 23
0.071000003372319
 33
0.0320000015199184
0
3DFACE
8
8
 62
8
 10
-0.071000003372319
 20
-0.071000003372319
 30
0.0320000015199184
 11
0.0445275633026898
 21
0.071000003372319
 31
0.0320000015199184
 12
0.071000003372319
 22
0.071000003372319
 32
0.0320000015199184
 13
0.071000003372319
 23
0.071000003372319
 33
0.0320000015199184
0
3DFACE
8
8
 62
8
 10
-0.071000003372319
 20
-0.071000003372319
 30
0.0320000015199184
 11
0.071000003372319
 21
0.071000003372319
 31
0.0320000015199184
 12
0.071000003372319
 22
0.0445275633026898
 32
0.0320000015199184
 13
0.071000003372319
 23
0.0445275633026898
 33
0.0320000015199184
0
3DFACE
8
8
 62
8
 10
-0.071000003372319
 20
-0.071000003372319
 30
0.0320000015199184
 11
0.071000003372319
 21
0.0445275633026898
 31
0.0320000015199184
 12
0.0830000039422885
 22
0.0445275633026898
 32
0.0320000015199184
 13
0.0830000039422885
 23
0.0445275633026898
 33
0.0320000015199184
0
3DFACE
8
8
 62
8
 10
-0.071000003372319
 20
-0.071000003372319
 30
0.0320000015199184
 11
0.0830000039422885
 21
0.0445275633026898
 31
0.0320000015199184
 12
0.071000003372319
 22
-0.0445275633026898
 32
0.0320000015199184
 13
0.071000003372319
 23
-0.0445275633026898
 33
0.0320000015199184
0
3DFACE
8
8
 62
8
 10
0.0830000039422885
 20
0.0445275633026898
 30
0.0320000015199184
 11
0.0830000039422885
 21
-0.0445275633026898
 31
0.0320000015199184
 12
0.071000003372319
 22
-0.0445275633026898
 32
0.0320000015199184
 13
0.071000003372319
 23
-0.0445275633026898
 33
0.0320000015199184
0
3DFACE
8
8
 62
8
 10
-0.071000003372319
 20
-0.071000003372319
 30
0.0320000015199184
 11
0.071000003372319
 21
-0.0445275633026898
 31
0.0320000015199184
 12
-0.0445275633026898
 22
-0.071000003372319
 32
0.0320000015199184
 13
-0.0445275633026898
 23
-0.071000003372319
 33
0.0320000015199184
0
3DFACE
8
8
 62
8
 10
0.071000003372319
 20
-0.0445275633026898
 30
0.0320000015199184
 11
0.071000003372319
 21
-0.071000003372319
 31
0.0320000015199184
 12
0.0445275633026898
 22
-0.071000003372319
 32
0.0320000015199184
 13
0.0445275633026898
 23
-0.071000003372319
 33
0.0320000015199184
0
3DFACE
8
8
 62
8
 10
0.071000003372319
 20
-0.0445275633026898
 30
0.0320000015199184
 11
0.0445275633026898
 21
-0.071000003372319
 31
0.0320000015199184
 12
-0.0445275633026898
 22
-0.0830000039422885
 32
0.0320000015199184
 13
-0.0445275633026898
 23
-0.0830000039422885
 33
0.0320000015199184
0
3DFACE
8
8
 62
8
 10
0.0445275633026898
 20
-0.071000003372319
 30
0.0320000015199184
 11
0.0445275633026898
 21
-0.0830000039422885
 31
0.0320000015199184
 12
-0.0445275633026898
 22
-0.0830000039422885
 32
0.0320000015199184
 13
-0.0445275633026898
 23
-0.0830000039422885
 33
0.0320000015199184
0
3DFACE
8
8
 62
8
 10
0.071000003372319
 20
-0.0445275633026898
 30
0.0320000015199184
 11
-0.0445275633026898
 21
-0.0830000039422885
 31
0.0320000015199184
 12
-0.0445275633026898
 22
-0.071000003372319
 32
0.0320000015199184
 13
-0.0445275633026898
 23
-0.071000003372319
 33
0.0320000015199184
0
3DFACE
8
8
 62
8
 10
-0.0445275633026898
 20
-0.071000003372319
 30
0
 11
-0.071000003372319
 21
-0.071000003372319
 31
0
 12
-0.071000003372319
 22
-0.071000003372319
 32
0.0320000015199184
 13
-0.0445275633026898
 23
-0.071000003372319
 33
0.0320000015199184
0
3DFACE
8
8
 62
8
 10
-0.071000003372319
 20
-0.071000003372319
 30
0
 11
-0.071000003372319
 21
-0.0445275633026898
 31
0
 12
-0.071000003372319
 22
-0.0445275633026898
 32
0.0320000015199184
 13
-0.071000003372319
 23
-0.071000003372319
 33
0.0320000015199184
0
3DFACE
8
8
 62
8
 10
-0.071000003372319
 20
-0.0445275633026898
 30
0
 11
-0.0830000039422885
 21
-0.0445275633026898
 31
0
 12
-0.0830000039422885
 22
-0.0445275633026898
 32
0.0320000015199184
 13
-0.071000003372319
 23
-0.0445275633026898
 33
0.0320000015199184
0
3DFACE
8
8
 62
8
 10
-0.0830000039422885
 20
-0.0445275633026898
 30
0
 11
-0.0830000039422885
 21
0.0445275633026898
 31
0
 12
-0.0830000039422885
 22
0.0445275633026898
 32
0.0320000015199184
 13
-0.0830000039422885
 23
-0.0445275633026898
 33
0.0320000015199184
0
3DFACE
8
8
 62
8
 10
-0.0830000039422885
 20
0.0445275633026898
 30
0
 11
-0.071000003372319
 21
0.0445275633026898
 31
0
 12
-0.071000003372319
 22
0.0445275633026898
 32
0.0320000015199184
 13
-0.0830000039422885
 23
0.0445275633026898
 33
0.0320000015199184
0
3DFACE
8
8
 62
8
 10
-0.071000003372319
 20
0.0445275633026898
 30
0
 11
-0.071000003372319
 21
0.071000003372319
 31
0
 12
-0.071000003372319
 22
0.071000003372319
 32
0.0320000015199184
 13
-0.071000003372319
 23
0.0445275633026898
 33
0.0320000015199184
0
3DFACE
8
8
 62
8
 10
-0.071000003372319
 20
0.071000003372319
 30
0
 11
-0.0445275633026898
 21
0.071000003372319
 31
0
 12
-0.0445275633026898
 22
0.071000003372319
 32
0.0320000015199184
 13
-0.071000003372319
 23
0.071000003372319
 33
0.0320000015199184
0
3DFACE
8
8
 62
8
 10
-0.0445275633026898
 20
0.071000003372319
 30
0
 11
-0.0445275633026898
 21
0.0830000039422885
 31
0
 12
-0.0445275633026898
 22
0.0830000039422885
 32
0.0320000015199184
 13
-0.0445275633026898
 23
0.071000003372319
 33
0.0320000015199184
0
3DFACE
8
8
 62
8
 10
-0.0445275633026898
 20
0.0830000039422885
 30
0
 11
0.0445275633026898
 21
0.0830000039422885
 31
0
 12
0.0445275633026898
 22
0.0830000039422885
 32
0.0320000015199184
 13
-0.0445275633026898
 23
0.0830000039422885
 33
0.0320000015199184
0
3DFACE
8
8
 62
8
 10
0.0445275633026898
 20
0.0830000039422885
 30
0
 11
0.0445275633026898
 21
0.071000003372319
 31
0
 12
0.0445275633026898
 22
0.071000003372319
 32
0.0320000015199184
 13
0.0445275633026898
 23
0.0830000039422885
 33
0.0320000015199184
0
3DFACE
8
8
 62
8
 10
0.0445275633026898
 20
0.071000003372319
 30
0
 11
0.071000003372319
 21
0.071000003372319
 31
0
 12
0.071000003372319
 22
0.071000003372319
 32
0.0320000015199184
 13
0.0445275633026898
 23
0.071000003372319
 33
0.0320000015199184
0
3DFACE
8
8
 62
8
 10
0.071000003372319
 20
0.071000003372319
 30
0
 11
0.071000003372319
 21
0.0445275633026898
 31
0
 12
0.071000003372319
 22
0.0445275633026898
 32
0.0320000015199184
 13
0.071000003372319
 23
0.071000003372319
 33
0.0320000015199184
0
3DFACE
8
8
 62
8
 10
0.071000003372319
 20
0.0445275633026898
 30
0
 11
0.0830000039422885
 21
0.0445275633026898
 31
0
 12
0.0830000039422885
 22
0.0445275633026898
 32
0.0320000015199184
 13
0.071000003372319
 23
0.0445275633026898
 33
0.0320000015199184
0
3DFACE
8
8
 62
8
 10
0.0830000039422885
 20
0.0445275633026898
 30
0
 11
0.0830000039422885
 21
-0.0445275633026898
 31
0
 12
0.0830000039422885
 22
-0.0445275633026898
 32
0.0320000015199184
 13
0.0830000039422885
 23
0.0445275633026898
 33
0.0320000015199184
0
3DFACE
8
8
 62
8
 10
0.0830000039422885
 20
-0.0445275633026898
 30
0
 11
0.071000003372319
 21
-0.0445275633026898
 31
0
 12
0.071000003372319
 22
-0.0445275633026898
 32
0.0320000015199184
 13
0.0830000039422885
 23
-0.0445275633026898
 33
0.0320000015199184
0
3DFACE
8
8
 62
8
 10
0.071000003372319
 20
-0.0445275633026898
 30
0
 11
0.071000003372319
 21
-0.071000003372319
 31
0
 12
0.071000003372319
 22
-0.071000003372319
 32
0.0320000015199184
 13
0.071000003372319
 23
-0.0445275633026898
 33
0.0320000015199184
0
3DFACE
8
8
 62
8
 10
0.071000003372319
 20
-0.071000003372319
 30
0
 11
0.0445275633026898
 21
-0.071000003372319
 31
0
 12
0.0445275633026898
 22
-0.071000003372319
 32
0.0320000015199184
 13
0.071000003372319
 23
-0.071000003372319
 33
0.0320000015199184
0
3DFACE
8
8
 62
8
 10
0.0445275633026898
 20
-0.071000003372319
 30
0
 11
0.0445275633026898
 21
-0.0830000039422885
 31
0
 12
0.0445275633026898
 22
-0.0830000039422885
 32
0.0320000015199184
 13
0.0445275633026898
 23
-0.071000003372319
 33
0.0320000015199184
0
3DFACE
8
8
 62
8
 10
0.0445275633026898
 20
-0.0830000039422885
 30
0
 11
-0.0445275633026898
 21
-0.0830000039422885
 31
0
 12
-0.0445275633026898
 22
-0.0830000039422885
 32
0.0320000015199184
 13
0.0445275633026898
 23
-0.0830000039422885
 33
0.0320000015199184
0
3DFACE
8
8
 62
8
 10
-0.0445275633026898
 20
-0.0830000039422885
 30
0
 11
-0.0445275633026898
 21
-0.071000003372319
 31
0
 12
-0.0445275633026898
 22
-0.071000003372319
 32
0.0320000015199184
 13
-0.0445275633026898
 23
-0.0830000039422885
 33
0.0320000015199184
 0
ENDBLK
 0
BLOCK
 70
0
 2
TOP_VALOR_Polygon_87
 10
0
 20
0
 30
0
0
3DFACE
8
23
 62
23
 10
-0.0980000046547502
 20
-0.0980000046547502
 30
0
 11
-0.0980000046547502
 21
0.0980000046547502
 31
0
 12
0.0980000046547502
 22
0.0980000046547502
 32
0
 13
0.0980000046547502
 23
-0.0980000046547502
 33
0
0
3DFACE
8
23
 62
23
 10
-0.0980000046547502
 20
-0.0980000046547502
 30
0.0320000015199184
 11
-0.0980000046547502
 21
0.0980000046547502
 31
0.0320000015199184
 12
0.0980000046547502
 22
0.0980000046547502
 32
0.0320000015199184
 13
0.0980000046547502
 23
-0.0980000046547502
 33
0.0320000015199184
0
3DFACE
8
23
 62
23
 10
0.0980000046547502
 20
-0.0980000046547502
 30
0
 11
-0.0980000046547502
 21
-0.0980000046547502
 31
0
 12
-0.0980000046547502
 22
-0.0980000046547502
 32
0.0320000015199184
 13
0.0980000046547502
 23
-0.0980000046547502
 33
0.0320000015199184
0
3DFACE
8
23
 62
23
 10
-0.0980000046547502
 20
-0.0980000046547502
 30
0
 11
-0.0980000046547502
 21
0.0980000046547502
 31
0
 12
-0.0980000046547502
 22
0.0980000046547502
 32
0.0320000015199184
 13
-0.0980000046547502
 23
-0.0980000046547502
 33
0.0320000015199184
0
3DFACE
8
23
 62
23
 10
-0.0980000046547502
 20
0.0980000046547502
 30
0
 11
0.0980000046547502
 21
0.0980000046547502
 31
0
 12
0.0980000046547502
 22
0.0980000046547502
 32
0.0320000015199184
 13
-0.0980000046547502
 23
0.0980000046547502
 33
0.0320000015199184
0
3DFACE
8
23
 62
23
 10
0.0980000046547502
 20
0.0980000046547502
 30
0
 11
0.0980000046547502
 21
-0.0980000046547502
 31
0
 12
0.0980000046547502
 22
-0.0980000046547502
 32
0.0320000015199184
 13
0.0980000046547502
 23
0.0980000046547502
 33
0.0320000015199184
 0
ENDBLK
0
ENDSEC
0
SECTION
2
ENTITIES
 0
INSERT
 8
2
 2
TOP_SILKSCREEN_Polygon_9
 10
0
 20
0
 30
0
 41
1
 42
1
 43
1
 0
INSERT
 8
8
 2
TOP_PLACE_BOUND_Polygon_55
 10
0
 20
0
 30
0
 41
1
 42
1
 43
1
 0
INSERT
 8
23
 2
TOP_VALOR_Polygon_87
 10
0
 20
0
 30
0
 41
1
 42
1
 43
1
0
ENDSEC
 0
EOF

