 999
VISION3D DXF
0
SECTION
2
HEADER
0
ENDSEC
0
SECTION
2
TABLES
0
ENDSEC
0
SECTION
2
BLOCKS
 0
BLOCK
 70
0
 2
TOP_PLACE_BOUND_Polygon_69
 10
0
 20
0
 30
0
0
3DFACE
8
8
 62
8
 10
-0.164000007789582
 20
-0.105500005010981
 30
0
 11
-0.164000007789582
 21
0.105500005010981
 31
0
 12
-0.098500004678499
 22
0.105500005010981
 32
0
 13
-0.098500004678499
 23
0.105500005010981
 33
0
0
3DFACE
8
8
 62
8
 10
-0.164000007789582
 20
-0.105500005010981
 30
0
 11
-0.098500004678499
 21
0.105500005010981
 31
0
 12
0.098500004678499
 22
0.118500005628448
 32
0
 13
0.098500004678499
 23
0.118500005628448
 33
0
0
3DFACE
8
8
 62
8
 10
-0.098500004678499
 20
0.105500005010981
 30
0
 11
-0.098500004678499
 21
0.118500005628448
 31
0
 12
0.098500004678499
 22
0.118500005628448
 32
0
 13
0.098500004678499
 23
0.118500005628448
 33
0
0
3DFACE
8
8
 62
8
 10
-0.164000007789582
 20
-0.105500005010981
 30
0
 11
0.098500004678499
 21
0.118500005628448
 31
0
 12
0.098500004678499
 22
0.105500005010981
 32
0
 13
0.098500004678499
 23
0.105500005010981
 33
0
0
3DFACE
8
8
 62
8
 10
-0.164000007789582
 20
-0.105500005010981
 30
0
 11
0.098500004678499
 21
0.105500005010981
 31
0
 12
0.164000007789582
 22
0.105500005010981
 32
0
 13
0.164000007789582
 23
0.105500005010981
 33
0
0
3DFACE
8
8
 62
8
 10
-0.164000007789582
 20
-0.105500005010981
 30
0
 11
0.164000007789582
 21
0.105500005010981
 31
0
 12
-0.098500004678499
 22
-0.105500005010981
 32
0
 13
-0.098500004678499
 23
-0.105500005010981
 33
0
0
3DFACE
8
8
 62
8
 10
0.164000007789582
 20
0.105500005010981
 30
0
 11
0.164000007789582
 21
-0.105500005010981
 31
0
 12
0.098500004678499
 22
-0.105500005010981
 32
0
 13
0.098500004678499
 23
-0.105500005010981
 33
0
0
3DFACE
8
8
 62
8
 10
0.164000007789582
 20
0.105500005010981
 30
0
 11
0.098500004678499
 21
-0.105500005010981
 31
0
 12
-0.098500004678499
 22
-0.118500005628448
 32
0
 13
-0.098500004678499
 23
-0.118500005628448
 33
0
0
3DFACE
8
8
 62
8
 10
0.098500004678499
 20
-0.105500005010981
 30
0
 11
0.098500004678499
 21
-0.118500005628448
 31
0
 12
-0.098500004678499
 22
-0.118500005628448
 32
0
 13
-0.098500004678499
 23
-0.118500005628448
 33
0
0
3DFACE
8
8
 62
8
 10
0.164000007789582
 20
0.105500005010981
 30
0
 11
-0.098500004678499
 21
-0.118500005628448
 31
0
 12
-0.098500004678499
 22
-0.105500005010981
 32
0
 13
-0.098500004678499
 23
-0.105500005010981
 33
0
0
3DFACE
8
8
 62
8
 10
-0.164000007789582
 20
-0.105500005010981
 30
0.0690000032773241
 11
-0.164000007789582
 21
0.105500005010981
 31
0.0690000032773241
 12
-0.098500004678499
 22
0.105500005010981
 32
0.0690000032773241
 13
-0.098500004678499
 23
0.105500005010981
 33
0.0690000032773241
0
3DFACE
8
8
 62
8
 10
-0.164000007789582
 20
-0.105500005010981
 30
0.0690000032773241
 11
-0.098500004678499
 21
0.105500005010981
 31
0.0690000032773241
 12
0.098500004678499
 22
0.118500005628448
 32
0.0690000032773241
 13
0.098500004678499
 23
0.118500005628448
 33
0.0690000032773241
0
3DFACE
8
8
 62
8
 10
-0.098500004678499
 20
0.105500005010981
 30
0.0690000032773241
 11
-0.098500004678499
 21
0.118500005628448
 31
0.0690000032773241
 12
0.098500004678499
 22
0.118500005628448
 32
0.0690000032773241
 13
0.098500004678499
 23
0.118500005628448
 33
0.0690000032773241
0
3DFACE
8
8
 62
8
 10
-0.164000007789582
 20
-0.105500005010981
 30
0.0690000032773241
 11
0.098500004678499
 21
0.118500005628448
 31
0.0690000032773241
 12
0.098500004678499
 22
0.105500005010981
 32
0.0690000032773241
 13
0.098500004678499
 23
0.105500005010981
 33
0.0690000032773241
0
3DFACE
8
8
 62
8
 10
-0.164000007789582
 20
-0.105500005010981
 30
0.0690000032773241
 11
0.098500004678499
 21
0.105500005010981
 31
0.0690000032773241
 12
0.164000007789582
 22
0.105500005010981
 32
0.0690000032773241
 13
0.164000007789582
 23
0.105500005010981
 33
0.0690000032773241
0
3DFACE
8
8
 62
8
 10
-0.164000007789582
 20
-0.105500005010981
 30
0.0690000032773241
 11
0.164000007789582
 21
0.105500005010981
 31
0.0690000032773241
 12
-0.098500004678499
 22
-0.105500005010981
 32
0.0690000032773241
 13
-0.098500004678499
 23
-0.105500005010981
 33
0.0690000032773241
0
3DFACE
8
8
 62
8
 10
0.164000007789582
 20
0.105500005010981
 30
0.0690000032773241
 11
0.164000007789582
 21
-0.105500005010981
 31
0.0690000032773241
 12
0.098500004678499
 22
-0.105500005010981
 32
0.0690000032773241
 13
0.098500004678499
 23
-0.105500005010981
 33
0.0690000032773241
0
3DFACE
8
8
 62
8
 10
0.164000007789582
 20
0.105500005010981
 30
0.0690000032773241
 11
0.098500004678499
 21
-0.105500005010981
 31
0.0690000032773241
 12
-0.098500004678499
 22
-0.118500005628448
 32
0.0690000032773241
 13
-0.098500004678499
 23
-0.118500005628448
 33
0.0690000032773241
0
3DFACE
8
8
 62
8
 10
0.098500004678499
 20
-0.105500005010981
 30
0.0690000032773241
 11
0.098500004678499
 21
-0.118500005628448
 31
0.0690000032773241
 12
-0.098500004678499
 22
-0.118500005628448
 32
0.0690000032773241
 13
-0.098500004678499
 23
-0.118500005628448
 33
0.0690000032773241
0
3DFACE
8
8
 62
8
 10
0.164000007789582
 20
0.105500005010981
 30
0.0690000032773241
 11
-0.098500004678499
 21
-0.118500005628448
 31
0.0690000032773241
 12
-0.098500004678499
 22
-0.105500005010981
 32
0.0690000032773241
 13
-0.098500004678499
 23
-0.105500005010981
 33
0.0690000032773241
0
3DFACE
8
8
 62
8
 10
-0.098500004678499
 20
-0.105500005010981
 30
0
 11
-0.164000007789582
 21
-0.105500005010981
 31
0
 12
-0.164000007789582
 22
-0.105500005010981
 32
0.0690000032773241
 13
-0.098500004678499
 23
-0.105500005010981
 33
0.0690000032773241
0
3DFACE
8
8
 62
8
 10
-0.164000007789582
 20
-0.105500005010981
 30
0
 11
-0.164000007789582
 21
0.105500005010981
 31
0
 12
-0.164000007789582
 22
0.105500005010981
 32
0.0690000032773241
 13
-0.164000007789582
 23
-0.105500005010981
 33
0.0690000032773241
0
3DFACE
8
8
 62
8
 10
-0.164000007789582
 20
0.105500005010981
 30
0
 11
-0.098500004678499
 21
0.105500005010981
 31
0
 12
-0.098500004678499
 22
0.105500005010981
 32
0.0690000032773241
 13
-0.164000007789582
 23
0.105500005010981
 33
0.0690000032773241
0
3DFACE
8
8
 62
8
 10
-0.098500004678499
 20
0.105500005010981
 30
0
 11
-0.098500004678499
 21
0.118500005628448
 31
0
 12
-0.098500004678499
 22
0.118500005628448
 32
0.0690000032773241
 13
-0.098500004678499
 23
0.105500005010981
 33
0.0690000032773241
0
3DFACE
8
8
 62
8
 10
-0.098500004678499
 20
0.118500005628448
 30
0
 11
0.098500004678499
 21
0.118500005628448
 31
0
 12
0.098500004678499
 22
0.118500005628448
 32
0.0690000032773241
 13
-0.098500004678499
 23
0.118500005628448
 33
0.0690000032773241
0
3DFACE
8
8
 62
8
 10
0.098500004678499
 20
0.118500005628448
 30
0
 11
0.098500004678499
 21
0.105500005010981
 31
0
 12
0.098500004678499
 22
0.105500005010981
 32
0.0690000032773241
 13
0.098500004678499
 23
0.118500005628448
 33
0.0690000032773241
0
3DFACE
8
8
 62
8
 10
0.098500004678499
 20
0.105500005010981
 30
0
 11
0.164000007789582
 21
0.105500005010981
 31
0
 12
0.164000007789582
 22
0.105500005010981
 32
0.0690000032773241
 13
0.098500004678499
 23
0.105500005010981
 33
0.0690000032773241
0
3DFACE
8
8
 62
8
 10
0.164000007789582
 20
0.105500005010981
 30
0
 11
0.164000007789582
 21
-0.105500005010981
 31
0
 12
0.164000007789582
 22
-0.105500005010981
 32
0.0690000032773241
 13
0.164000007789582
 23
0.105500005010981
 33
0.0690000032773241
0
3DFACE
8
8
 62
8
 10
0.164000007789582
 20
-0.105500005010981
 30
0
 11
0.098500004678499
 21
-0.105500005010981
 31
0
 12
0.098500004678499
 22
-0.105500005010981
 32
0.0690000032773241
 13
0.164000007789582
 23
-0.105500005010981
 33
0.0690000032773241
0
3DFACE
8
8
 62
8
 10
0.098500004678499
 20
-0.105500005010981
 30
0
 11
0.098500004678499
 21
-0.118500005628448
 31
0
 12
0.098500004678499
 22
-0.118500005628448
 32
0.0690000032773241
 13
0.098500004678499
 23
-0.105500005010981
 33
0.0690000032773241
0
3DFACE
8
8
 62
8
 10
0.098500004678499
 20
-0.118500005628448
 30
0
 11
-0.098500004678499
 21
-0.118500005628448
 31
0
 12
-0.098500004678499
 22
-0.118500005628448
 32
0.0690000032773241
 13
0.098500004678499
 23
-0.118500005628448
 33
0.0690000032773241
0
3DFACE
8
8
 62
8
 10
-0.098500004678499
 20
-0.118500005628448
 30
0
 11
-0.098500004678499
 21
-0.105500005010981
 31
0
 12
-0.098500004678499
 22
-0.105500005010981
 32
0.0690000032773241
 13
-0.098500004678499
 23
-0.118500005628448
 33
0.0690000032773241
 0
ENDBLK
 0
BLOCK
 70
0
 2
TOP_VALOR_Polygon_87
 10
0
 20
0
 30
0
0
3DFACE
8
23
 62
23
 10
-0.169000008027069
 20
-0.108500005153473
 30
0
 11
-0.169000008027069
 21
0.108500005153473
 31
0
 12
0.169000008027069
 22
0.108500005153473
 32
0
 13
0.169000008027069
 23
-0.108500005153473
 33
0
0
3DFACE
8
23
 62
23
 10
-0.169000008027069
 20
-0.108500005153473
 30
0.0690000032773241
 11
-0.169000008027069
 21
0.108500005153473
 31
0.0690000032773241
 12
0.169000008027069
 22
0.108500005153473
 32
0.0690000032773241
 13
0.169000008027069
 23
-0.108500005153473
 33
0.0690000032773241
0
3DFACE
8
23
 62
23
 10
0.169000008027069
 20
-0.108500005153473
 30
0
 11
-0.169000008027069
 21
-0.108500005153473
 31
0
 12
-0.169000008027069
 22
-0.108500005153473
 32
0.0690000032773241
 13
0.169000008027069
 23
-0.108500005153473
 33
0.0690000032773241
0
3DFACE
8
23
 62
23
 10
-0.169000008027069
 20
-0.108500005153473
 30
0
 11
-0.169000008027069
 21
0.108500005153473
 31
0
 12
-0.169000008027069
 22
0.108500005153473
 32
0.0690000032773241
 13
-0.169000008027069
 23
-0.108500005153473
 33
0.0690000032773241
0
3DFACE
8
23
 62
23
 10
-0.169000008027069
 20
0.108500005153473
 30
0
 11
0.169000008027069
 21
0.108500005153473
 31
0
 12
0.169000008027069
 22
0.108500005153473
 32
0.0690000032773241
 13
-0.169000008027069
 23
0.108500005153473
 33
0.0690000032773241
0
3DFACE
8
23
 62
23
 10
0.169000008027069
 20
0.108500005153473
 30
0
 11
0.169000008027069
 21
-0.108500005153473
 31
0
 12
0.169000008027069
 22
-0.108500005153473
 32
0.0690000032773241
 13
0.169000008027069
 23
0.108500005153473
 33
0.0690000032773241
 0
ENDBLK
0
ENDSEC
0
SECTION
2
ENTITIES
 0
INSERT
 8
8
 2
TOP_PLACE_BOUND_Polygon_69
 10
0
 20
0
 30
0
 41
1
 42
1
 43
1
 0
INSERT
 8
23
 2
TOP_VALOR_Polygon_87
 10
0
 20
0
 30
0
 41
1
 42
1
 43
1
0
ENDSEC
 0
EOF

