 999
VISION3D DXF
0
SECTION
2
HEADER
0
ENDSEC
0
SECTION
2
TABLES
0
ENDSEC
0
SECTION
2
BLOCKS
 0
BLOCK
 70
0
 2
TOP_PLACE_BOUND_Polygon_69
 10
0
 20
0
 30
0
0
3DFACE
8
8
 62
8
 10
-0.146000006934628
 20
-0.0955000045360066
 30
0
 11
-0.146000006934628
 21
0.0955000045360066
 31
0
 12
-0.0885000042035244
 22
0.0955000045360066
 32
0
 13
-0.0885000042035244
 23
0.0955000045360066
 33
0
0
3DFACE
8
8
 62
8
 10
-0.146000006934628
 20
-0.0955000045360066
 30
0
 11
-0.0885000042035244
 21
0.0955000045360066
 31
0
 12
0.0885000042035244
 22
0.108500005153473
 32
0
 13
0.0885000042035244
 23
0.108500005153473
 33
0
0
3DFACE
8
8
 62
8
 10
-0.0885000042035244
 20
0.0955000045360066
 30
0
 11
-0.0885000042035244
 21
0.108500005153473
 31
0
 12
0.0885000042035244
 22
0.108500005153473
 32
0
 13
0.0885000042035244
 23
0.108500005153473
 33
0
0
3DFACE
8
8
 62
8
 10
-0.146000006934628
 20
-0.0955000045360066
 30
0
 11
0.0885000042035244
 21
0.108500005153473
 31
0
 12
0.0885000042035244
 22
0.0955000045360066
 32
0
 13
0.0885000042035244
 23
0.0955000045360066
 33
0
0
3DFACE
8
8
 62
8
 10
-0.146000006934628
 20
-0.0955000045360066
 30
0
 11
0.0885000042035244
 21
0.0955000045360066
 31
0
 12
0.146000006934628
 22
0.0955000045360066
 32
0
 13
0.146000006934628
 23
0.0955000045360066
 33
0
0
3DFACE
8
8
 62
8
 10
-0.146000006934628
 20
-0.0955000045360066
 30
0
 11
0.146000006934628
 21
0.0955000045360066
 31
0
 12
-0.0885000042035244
 22
-0.0955000045360066
 32
0
 13
-0.0885000042035244
 23
-0.0955000045360066
 33
0
0
3DFACE
8
8
 62
8
 10
0.146000006934628
 20
0.0955000045360066
 30
0
 11
0.146000006934628
 21
-0.0955000045360066
 31
0
 12
0.0885000042035244
 22
-0.0955000045360066
 32
0
 13
0.0885000042035244
 23
-0.0955000045360066
 33
0
0
3DFACE
8
8
 62
8
 10
0.146000006934628
 20
0.0955000045360066
 30
0
 11
0.0885000042035244
 21
-0.0955000045360066
 31
0
 12
-0.0885000042035244
 22
-0.108500005153473
 32
0
 13
-0.0885000042035244
 23
-0.108500005153473
 33
0
0
3DFACE
8
8
 62
8
 10
0.0885000042035244
 20
-0.0955000045360066
 30
0
 11
0.0885000042035244
 21
-0.108500005153473
 31
0
 12
-0.0885000042035244
 22
-0.108500005153473
 32
0
 13
-0.0885000042035244
 23
-0.108500005153473
 33
0
0
3DFACE
8
8
 62
8
 10
0.146000006934628
 20
0.0955000045360066
 30
0
 11
-0.0885000042035244
 21
-0.108500005153473
 31
0
 12
-0.0885000042035244
 22
-0.0955000045360066
 32
0
 13
-0.0885000042035244
 23
-0.0955000045360066
 33
0
0
3DFACE
8
8
 62
8
 10
-0.146000006934628
 20
-0.0955000045360066
 30
0.0690000032773241
 11
-0.146000006934628
 21
0.0955000045360066
 31
0.0690000032773241
 12
-0.0885000042035244
 22
0.0955000045360066
 32
0.0690000032773241
 13
-0.0885000042035244
 23
0.0955000045360066
 33
0.0690000032773241
0
3DFACE
8
8
 62
8
 10
-0.146000006934628
 20
-0.0955000045360066
 30
0.0690000032773241
 11
-0.0885000042035244
 21
0.0955000045360066
 31
0.0690000032773241
 12
0.0885000042035244
 22
0.108500005153473
 32
0.0690000032773241
 13
0.0885000042035244
 23
0.108500005153473
 33
0.0690000032773241
0
3DFACE
8
8
 62
8
 10
-0.0885000042035244
 20
0.0955000045360066
 30
0.0690000032773241
 11
-0.0885000042035244
 21
0.108500005153473
 31
0.0690000032773241
 12
0.0885000042035244
 22
0.108500005153473
 32
0.0690000032773241
 13
0.0885000042035244
 23
0.108500005153473
 33
0.0690000032773241
0
3DFACE
8
8
 62
8
 10
-0.146000006934628
 20
-0.0955000045360066
 30
0.0690000032773241
 11
0.0885000042035244
 21
0.108500005153473
 31
0.0690000032773241
 12
0.0885000042035244
 22
0.0955000045360066
 32
0.0690000032773241
 13
0.0885000042035244
 23
0.0955000045360066
 33
0.0690000032773241
0
3DFACE
8
8
 62
8
 10
-0.146000006934628
 20
-0.0955000045360066
 30
0.0690000032773241
 11
0.0885000042035244
 21
0.0955000045360066
 31
0.0690000032773241
 12
0.146000006934628
 22
0.0955000045360066
 32
0.0690000032773241
 13
0.146000006934628
 23
0.0955000045360066
 33
0.0690000032773241
0
3DFACE
8
8
 62
8
 10
-0.146000006934628
 20
-0.0955000045360066
 30
0.0690000032773241
 11
0.146000006934628
 21
0.0955000045360066
 31
0.0690000032773241
 12
-0.0885000042035244
 22
-0.0955000045360066
 32
0.0690000032773241
 13
-0.0885000042035244
 23
-0.0955000045360066
 33
0.0690000032773241
0
3DFACE
8
8
 62
8
 10
0.146000006934628
 20
0.0955000045360066
 30
0.0690000032773241
 11
0.146000006934628
 21
-0.0955000045360066
 31
0.0690000032773241
 12
0.0885000042035244
 22
-0.0955000045360066
 32
0.0690000032773241
 13
0.0885000042035244
 23
-0.0955000045360066
 33
0.0690000032773241
0
3DFACE
8
8
 62
8
 10
0.146000006934628
 20
0.0955000045360066
 30
0.0690000032773241
 11
0.0885000042035244
 21
-0.0955000045360066
 31
0.0690000032773241
 12
-0.0885000042035244
 22
-0.108500005153473
 32
0.0690000032773241
 13
-0.0885000042035244
 23
-0.108500005153473
 33
0.0690000032773241
0
3DFACE
8
8
 62
8
 10
0.0885000042035244
 20
-0.0955000045360066
 30
0.0690000032773241
 11
0.0885000042035244
 21
-0.108500005153473
 31
0.0690000032773241
 12
-0.0885000042035244
 22
-0.108500005153473
 32
0.0690000032773241
 13
-0.0885000042035244
 23
-0.108500005153473
 33
0.0690000032773241
0
3DFACE
8
8
 62
8
 10
0.146000006934628
 20
0.0955000045360066
 30
0.0690000032773241
 11
-0.0885000042035244
 21
-0.108500005153473
 31
0.0690000032773241
 12
-0.0885000042035244
 22
-0.0955000045360066
 32
0.0690000032773241
 13
-0.0885000042035244
 23
-0.0955000045360066
 33
0.0690000032773241
0
3DFACE
8
8
 62
8
 10
-0.0885000042035244
 20
-0.0955000045360066
 30
0
 11
-0.146000006934628
 21
-0.0955000045360066
 31
0
 12
-0.146000006934628
 22
-0.0955000045360066
 32
0.0690000032773241
 13
-0.0885000042035244
 23
-0.0955000045360066
 33
0.0690000032773241
0
3DFACE
8
8
 62
8
 10
-0.146000006934628
 20
-0.0955000045360066
 30
0
 11
-0.146000006934628
 21
0.0955000045360066
 31
0
 12
-0.146000006934628
 22
0.0955000045360066
 32
0.0690000032773241
 13
-0.146000006934628
 23
-0.0955000045360066
 33
0.0690000032773241
0
3DFACE
8
8
 62
8
 10
-0.146000006934628
 20
0.0955000045360066
 30
0
 11
-0.0885000042035244
 21
0.0955000045360066
 31
0
 12
-0.0885000042035244
 22
0.0955000045360066
 32
0.0690000032773241
 13
-0.146000006934628
 23
0.0955000045360066
 33
0.0690000032773241
0
3DFACE
8
8
 62
8
 10
-0.0885000042035244
 20
0.0955000045360066
 30
0
 11
-0.0885000042035244
 21
0.108500005153473
 31
0
 12
-0.0885000042035244
 22
0.108500005153473
 32
0.0690000032773241
 13
-0.0885000042035244
 23
0.0955000045360066
 33
0.0690000032773241
0
3DFACE
8
8
 62
8
 10
-0.0885000042035244
 20
0.108500005153473
 30
0
 11
0.0885000042035244
 21
0.108500005153473
 31
0
 12
0.0885000042035244
 22
0.108500005153473
 32
0.0690000032773241
 13
-0.0885000042035244
 23
0.108500005153473
 33
0.0690000032773241
0
3DFACE
8
8
 62
8
 10
0.0885000042035244
 20
0.108500005153473
 30
0
 11
0.0885000042035244
 21
0.0955000045360066
 31
0
 12
0.0885000042035244
 22
0.0955000045360066
 32
0.0690000032773241
 13
0.0885000042035244
 23
0.108500005153473
 33
0.0690000032773241
0
3DFACE
8
8
 62
8
 10
0.0885000042035244
 20
0.0955000045360066
 30
0
 11
0.146000006934628
 21
0.0955000045360066
 31
0
 12
0.146000006934628
 22
0.0955000045360066
 32
0.0690000032773241
 13
0.0885000042035244
 23
0.0955000045360066
 33
0.0690000032773241
0
3DFACE
8
8
 62
8
 10
0.146000006934628
 20
0.0955000045360066
 30
0
 11
0.146000006934628
 21
-0.0955000045360066
 31
0
 12
0.146000006934628
 22
-0.0955000045360066
 32
0.0690000032773241
 13
0.146000006934628
 23
0.0955000045360066
 33
0.0690000032773241
0
3DFACE
8
8
 62
8
 10
0.146000006934628
 20
-0.0955000045360066
 30
0
 11
0.0885000042035244
 21
-0.0955000045360066
 31
0
 12
0.0885000042035244
 22
-0.0955000045360066
 32
0.0690000032773241
 13
0.146000006934628
 23
-0.0955000045360066
 33
0.0690000032773241
0
3DFACE
8
8
 62
8
 10
0.0885000042035244
 20
-0.0955000045360066
 30
0
 11
0.0885000042035244
 21
-0.108500005153473
 31
0
 12
0.0885000042035244
 22
-0.108500005153473
 32
0.0690000032773241
 13
0.0885000042035244
 23
-0.0955000045360066
 33
0.0690000032773241
0
3DFACE
8
8
 62
8
 10
0.0885000042035244
 20
-0.108500005153473
 30
0
 11
-0.0885000042035244
 21
-0.108500005153473
 31
0
 12
-0.0885000042035244
 22
-0.108500005153473
 32
0.0690000032773241
 13
0.0885000042035244
 23
-0.108500005153473
 33
0.0690000032773241
0
3DFACE
8
8
 62
8
 10
-0.0885000042035244
 20
-0.108500005153473
 30
0
 11
-0.0885000042035244
 21
-0.0955000045360066
 31
0
 12
-0.0885000042035244
 22
-0.0955000045360066
 32
0.0690000032773241
 13
-0.0885000042035244
 23
-0.108500005153473
 33
0.0690000032773241
 0
ENDBLK
 0
BLOCK
 70
0
 2
TOP_VALOR_Polygon_87
 10
0
 20
0
 30
0
0
3DFACE
8
23
 62
23
 10
-0.16100000764709
 20
-0.108500005153473
 30
0
 11
-0.16100000764709
 21
0.108500005153473
 31
0
 12
0.16100000764709
 22
0.108500005153473
 32
0
 13
0.16100000764709
 23
-0.108500005153473
 33
0
0
3DFACE
8
23
 62
23
 10
-0.16100000764709
 20
-0.108500005153473
 30
0.0690000032773241
 11
-0.16100000764709
 21
0.108500005153473
 31
0.0690000032773241
 12
0.16100000764709
 22
0.108500005153473
 32
0.0690000032773241
 13
0.16100000764709
 23
-0.108500005153473
 33
0.0690000032773241
0
3DFACE
8
23
 62
23
 10
0.16100000764709
 20
-0.108500005153473
 30
0
 11
-0.16100000764709
 21
-0.108500005153473
 31
0
 12
-0.16100000764709
 22
-0.108500005153473
 32
0.0690000032773241
 13
0.16100000764709
 23
-0.108500005153473
 33
0.0690000032773241
0
3DFACE
8
23
 62
23
 10
-0.16100000764709
 20
-0.108500005153473
 30
0
 11
-0.16100000764709
 21
0.108500005153473
 31
0
 12
-0.16100000764709
 22
0.108500005153473
 32
0.0690000032773241
 13
-0.16100000764709
 23
-0.108500005153473
 33
0.0690000032773241
0
3DFACE
8
23
 62
23
 10
-0.16100000764709
 20
0.108500005153473
 30
0
 11
0.16100000764709
 21
0.108500005153473
 31
0
 12
0.16100000764709
 22
0.108500005153473
 32
0.0690000032773241
 13
-0.16100000764709
 23
0.108500005153473
 33
0.0690000032773241
0
3DFACE
8
23
 62
23
 10
0.16100000764709
 20
0.108500005153473
 30
0
 11
0.16100000764709
 21
-0.108500005153473
 31
0
 12
0.16100000764709
 22
-0.108500005153473
 32
0.0690000032773241
 13
0.16100000764709
 23
0.108500005153473
 33
0.0690000032773241
 0
ENDBLK
0
ENDSEC
0
SECTION
2
ENTITIES
 0
INSERT
 8
8
 2
TOP_PLACE_BOUND_Polygon_69
 10
0
 20
0
 30
0
 41
1
 42
1
 43
1
 0
INSERT
 8
23
 2
TOP_VALOR_Polygon_87
 10
0
 20
0
 30
0
 41
1
 42
1
 43
1
0
ENDSEC
 0
EOF

