 999
VISION3D DXF
0
SECTION
2
HEADER
0
ENDSEC
0
SECTION
2
TABLES
0
ENDSEC
0
SECTION
2
BLOCKS
 0
BLOCK
 70
0
 2
TOP_PLACE_BOUND_Polygon_69
 10
0
 20
0
 30
0
0
3DFACE
8
8
 62
8
 10
-0.132000006269664
 20
-0.0885000042035244
 30
0
 11
-0.132000006269664
 21
0.0885000042035244
 31
0
 12
-0.0825000039185397
 22
0.0885000042035244
 32
0
 13
-0.0825000039185397
 23
0.0885000042035244
 33
0
0
3DFACE
8
8
 62
8
 10
-0.132000006269664
 20
-0.0885000042035244
 30
0
 11
-0.0825000039185397
 21
0.0885000042035244
 31
0
 12
0.0825000039185397
 22
0.102500004868489
 32
0
 13
0.0825000039185397
 23
0.102500004868489
 33
0
0
3DFACE
8
8
 62
8
 10
-0.0825000039185397
 20
0.0885000042035244
 30
0
 11
-0.0825000039185397
 21
0.102500004868489
 31
0
 12
0.0825000039185397
 22
0.102500004868489
 32
0
 13
0.0825000039185397
 23
0.102500004868489
 33
0
0
3DFACE
8
8
 62
8
 10
-0.132000006269664
 20
-0.0885000042035244
 30
0
 11
0.0825000039185397
 21
0.102500004868489
 31
0
 12
0.0825000039185397
 22
0.0885000042035244
 32
0
 13
0.0825000039185397
 23
0.0885000042035244
 33
0
0
3DFACE
8
8
 62
8
 10
-0.132000006269664
 20
-0.0885000042035244
 30
0
 11
0.0825000039185397
 21
0.0885000042035244
 31
0
 12
0.132000006269664
 22
0.0885000042035244
 32
0
 13
0.132000006269664
 23
0.0885000042035244
 33
0
0
3DFACE
8
8
 62
8
 10
-0.132000006269664
 20
-0.0885000042035244
 30
0
 11
0.132000006269664
 21
0.0885000042035244
 31
0
 12
-0.0825000039185397
 22
-0.0885000042035244
 32
0
 13
-0.0825000039185397
 23
-0.0885000042035244
 33
0
0
3DFACE
8
8
 62
8
 10
0.132000006269664
 20
0.0885000042035244
 30
0
 11
0.132000006269664
 21
-0.0885000042035244
 31
0
 12
0.0825000039185397
 22
-0.0885000042035244
 32
0
 13
0.0825000039185397
 23
-0.0885000042035244
 33
0
0
3DFACE
8
8
 62
8
 10
0.132000006269664
 20
0.0885000042035244
 30
0
 11
0.0825000039185397
 21
-0.0885000042035244
 31
0
 12
-0.0825000039185397
 22
-0.102500004868489
 32
0
 13
-0.0825000039185397
 23
-0.102500004868489
 33
0
0
3DFACE
8
8
 62
8
 10
0.0825000039185397
 20
-0.0885000042035244
 30
0
 11
0.0825000039185397
 21
-0.102500004868489
 31
0
 12
-0.0825000039185397
 22
-0.102500004868489
 32
0
 13
-0.0825000039185397
 23
-0.102500004868489
 33
0
0
3DFACE
8
8
 62
8
 10
0.132000006269664
 20
0.0885000042035244
 30
0
 11
-0.0825000039185397
 21
-0.102500004868489
 31
0
 12
-0.0825000039185397
 22
-0.0885000042035244
 32
0
 13
-0.0825000039185397
 23
-0.0885000042035244
 33
0
0
3DFACE
8
8
 62
8
 10
-0.132000006269664
 20
-0.0885000042035244
 30
0.0690000032773241
 11
-0.132000006269664
 21
0.0885000042035244
 31
0.0690000032773241
 12
-0.0825000039185397
 22
0.0885000042035244
 32
0.0690000032773241
 13
-0.0825000039185397
 23
0.0885000042035244
 33
0.0690000032773241
0
3DFACE
8
8
 62
8
 10
-0.132000006269664
 20
-0.0885000042035244
 30
0.0690000032773241
 11
-0.0825000039185397
 21
0.0885000042035244
 31
0.0690000032773241
 12
0.0825000039185397
 22
0.102500004868489
 32
0.0690000032773241
 13
0.0825000039185397
 23
0.102500004868489
 33
0.0690000032773241
0
3DFACE
8
8
 62
8
 10
-0.0825000039185397
 20
0.0885000042035244
 30
0.0690000032773241
 11
-0.0825000039185397
 21
0.102500004868489
 31
0.0690000032773241
 12
0.0825000039185397
 22
0.102500004868489
 32
0.0690000032773241
 13
0.0825000039185397
 23
0.102500004868489
 33
0.0690000032773241
0
3DFACE
8
8
 62
8
 10
-0.132000006269664
 20
-0.0885000042035244
 30
0.0690000032773241
 11
0.0825000039185397
 21
0.102500004868489
 31
0.0690000032773241
 12
0.0825000039185397
 22
0.0885000042035244
 32
0.0690000032773241
 13
0.0825000039185397
 23
0.0885000042035244
 33
0.0690000032773241
0
3DFACE
8
8
 62
8
 10
-0.132000006269664
 20
-0.0885000042035244
 30
0.0690000032773241
 11
0.0825000039185397
 21
0.0885000042035244
 31
0.0690000032773241
 12
0.132000006269664
 22
0.0885000042035244
 32
0.0690000032773241
 13
0.132000006269664
 23
0.0885000042035244
 33
0.0690000032773241
0
3DFACE
8
8
 62
8
 10
-0.132000006269664
 20
-0.0885000042035244
 30
0.0690000032773241
 11
0.132000006269664
 21
0.0885000042035244
 31
0.0690000032773241
 12
-0.0825000039185397
 22
-0.0885000042035244
 32
0.0690000032773241
 13
-0.0825000039185397
 23
-0.0885000042035244
 33
0.0690000032773241
0
3DFACE
8
8
 62
8
 10
0.132000006269664
 20
0.0885000042035244
 30
0.0690000032773241
 11
0.132000006269664
 21
-0.0885000042035244
 31
0.0690000032773241
 12
0.0825000039185397
 22
-0.0885000042035244
 32
0.0690000032773241
 13
0.0825000039185397
 23
-0.0885000042035244
 33
0.0690000032773241
0
3DFACE
8
8
 62
8
 10
0.132000006269664
 20
0.0885000042035244
 30
0.0690000032773241
 11
0.0825000039185397
 21
-0.0885000042035244
 31
0.0690000032773241
 12
-0.0825000039185397
 22
-0.102500004868489
 32
0.0690000032773241
 13
-0.0825000039185397
 23
-0.102500004868489
 33
0.0690000032773241
0
3DFACE
8
8
 62
8
 10
0.0825000039185397
 20
-0.0885000042035244
 30
0.0690000032773241
 11
0.0825000039185397
 21
-0.102500004868489
 31
0.0690000032773241
 12
-0.0825000039185397
 22
-0.102500004868489
 32
0.0690000032773241
 13
-0.0825000039185397
 23
-0.102500004868489
 33
0.0690000032773241
0
3DFACE
8
8
 62
8
 10
0.132000006269664
 20
0.0885000042035244
 30
0.0690000032773241
 11
-0.0825000039185397
 21
-0.102500004868489
 31
0.0690000032773241
 12
-0.0825000039185397
 22
-0.0885000042035244
 32
0.0690000032773241
 13
-0.0825000039185397
 23
-0.0885000042035244
 33
0.0690000032773241
0
3DFACE
8
8
 62
8
 10
-0.0825000039185397
 20
-0.0885000042035244
 30
0
 11
-0.132000006269664
 21
-0.0885000042035244
 31
0
 12
-0.132000006269664
 22
-0.0885000042035244
 32
0.0690000032773241
 13
-0.0825000039185397
 23
-0.0885000042035244
 33
0.0690000032773241
0
3DFACE
8
8
 62
8
 10
-0.132000006269664
 20
-0.0885000042035244
 30
0
 11
-0.132000006269664
 21
0.0885000042035244
 31
0
 12
-0.132000006269664
 22
0.0885000042035244
 32
0.0690000032773241
 13
-0.132000006269664
 23
-0.0885000042035244
 33
0.0690000032773241
0
3DFACE
8
8
 62
8
 10
-0.132000006269664
 20
0.0885000042035244
 30
0
 11
-0.0825000039185397
 21
0.0885000042035244
 31
0
 12
-0.0825000039185397
 22
0.0885000042035244
 32
0.0690000032773241
 13
-0.132000006269664
 23
0.0885000042035244
 33
0.0690000032773241
0
3DFACE
8
8
 62
8
 10
-0.0825000039185397
 20
0.0885000042035244
 30
0
 11
-0.0825000039185397
 21
0.102500004868489
 31
0
 12
-0.0825000039185397
 22
0.102500004868489
 32
0.0690000032773241
 13
-0.0825000039185397
 23
0.0885000042035244
 33
0.0690000032773241
0
3DFACE
8
8
 62
8
 10
-0.0825000039185397
 20
0.102500004868489
 30
0
 11
0.0825000039185397
 21
0.102500004868489
 31
0
 12
0.0825000039185397
 22
0.102500004868489
 32
0.0690000032773241
 13
-0.0825000039185397
 23
0.102500004868489
 33
0.0690000032773241
0
3DFACE
8
8
 62
8
 10
0.0825000039185397
 20
0.102500004868489
 30
0
 11
0.0825000039185397
 21
0.0885000042035244
 31
0
 12
0.0825000039185397
 22
0.0885000042035244
 32
0.0690000032773241
 13
0.0825000039185397
 23
0.102500004868489
 33
0.0690000032773241
0
3DFACE
8
8
 62
8
 10
0.0825000039185397
 20
0.0885000042035244
 30
0
 11
0.132000006269664
 21
0.0885000042035244
 31
0
 12
0.132000006269664
 22
0.0885000042035244
 32
0.0690000032773241
 13
0.0825000039185397
 23
0.0885000042035244
 33
0.0690000032773241
0
3DFACE
8
8
 62
8
 10
0.132000006269664
 20
0.0885000042035244
 30
0
 11
0.132000006269664
 21
-0.0885000042035244
 31
0
 12
0.132000006269664
 22
-0.0885000042035244
 32
0.0690000032773241
 13
0.132000006269664
 23
0.0885000042035244
 33
0.0690000032773241
0
3DFACE
8
8
 62
8
 10
0.132000006269664
 20
-0.0885000042035244
 30
0
 11
0.0825000039185397
 21
-0.0885000042035244
 31
0
 12
0.0825000039185397
 22
-0.0885000042035244
 32
0.0690000032773241
 13
0.132000006269664
 23
-0.0885000042035244
 33
0.0690000032773241
0
3DFACE
8
8
 62
8
 10
0.0825000039185397
 20
-0.0885000042035244
 30
0
 11
0.0825000039185397
 21
-0.102500004868489
 31
0
 12
0.0825000039185397
 22
-0.102500004868489
 32
0.0690000032773241
 13
0.0825000039185397
 23
-0.0885000042035244
 33
0.0690000032773241
0
3DFACE
8
8
 62
8
 10
0.0825000039185397
 20
-0.102500004868489
 30
0
 11
-0.0825000039185397
 21
-0.102500004868489
 31
0
 12
-0.0825000039185397
 22
-0.102500004868489
 32
0.0690000032773241
 13
0.0825000039185397
 23
-0.102500004868489
 33
0.0690000032773241
0
3DFACE
8
8
 62
8
 10
-0.0825000039185397
 20
-0.102500004868489
 30
0
 11
-0.0825000039185397
 21
-0.0885000042035244
 31
0
 12
-0.0825000039185397
 22
-0.0885000042035244
 32
0.0690000032773241
 13
-0.0825000039185397
 23
-0.102500004868489
 33
0.0690000032773241
 0
ENDBLK
 0
BLOCK
 70
0
 2
TOP_VALOR_Polygon_87
 10
0
 20
0
 30
0
0
3DFACE
8
23
 62
23
 10
-0.15300000726711
 20
-0.108500005153473
 30
0
 11
-0.15300000726711
 21
0.108500005153473
 31
0
 12
0.15300000726711
 22
0.108500005153473
 32
0
 13
0.15300000726711
 23
-0.108500005153473
 33
0
0
3DFACE
8
23
 62
23
 10
-0.15300000726711
 20
-0.108500005153473
 30
0.0690000032773241
 11
-0.15300000726711
 21
0.108500005153473
 31
0.0690000032773241
 12
0.15300000726711
 22
0.108500005153473
 32
0.0690000032773241
 13
0.15300000726711
 23
-0.108500005153473
 33
0.0690000032773241
0
3DFACE
8
23
 62
23
 10
0.15300000726711
 20
-0.108500005153473
 30
0
 11
-0.15300000726711
 21
-0.108500005153473
 31
0
 12
-0.15300000726711
 22
-0.108500005153473
 32
0.0690000032773241
 13
0.15300000726711
 23
-0.108500005153473
 33
0.0690000032773241
0
3DFACE
8
23
 62
23
 10
-0.15300000726711
 20
-0.108500005153473
 30
0
 11
-0.15300000726711
 21
0.108500005153473
 31
0
 12
-0.15300000726711
 22
0.108500005153473
 32
0.0690000032773241
 13
-0.15300000726711
 23
-0.108500005153473
 33
0.0690000032773241
0
3DFACE
8
23
 62
23
 10
-0.15300000726711
 20
0.108500005153473
 30
0
 11
0.15300000726711
 21
0.108500005153473
 31
0
 12
0.15300000726711
 22
0.108500005153473
 32
0.0690000032773241
 13
-0.15300000726711
 23
0.108500005153473
 33
0.0690000032773241
0
3DFACE
8
23
 62
23
 10
0.15300000726711
 20
0.108500005153473
 30
0
 11
0.15300000726711
 21
-0.108500005153473
 31
0
 12
0.15300000726711
 22
-0.108500005153473
 32
0.0690000032773241
 13
0.15300000726711
 23
0.108500005153473
 33
0.0690000032773241
 0
ENDBLK
0
ENDSEC
0
SECTION
2
ENTITIES
 0
INSERT
 8
8
 2
TOP_PLACE_BOUND_Polygon_69
 10
0
 20
0
 30
0
 41
1
 42
1
 43
1
 0
INSERT
 8
23
 2
TOP_VALOR_Polygon_87
 10
0
 20
0
 30
0
 41
1
 42
1
 43
1
0
ENDSEC
 0
EOF

